<?xml version="1.0" encoding="UTF-8"?>
<svg xmlns="http://www.w3.org/2000/svg" height="64" width="64" viewBox="0 0 64 64"><title>Seal-C</title><g fill="#000000" id="Seal-C"><path d="M48.2601 26.6425L48.2601 26.6425Q47.9812 26.6425 47.3397 26.8936Q46.6982 27.1446 46.0846 27.4793L46.0846 27.4793Q45.0806 27.9813 42.6262 28.1765Q40.1719 28.3717 32.5857 28.4833L32.5857 28.4833Q22.7125 28.7064 20.6207 29.1248Q18.529 29.5431 15.9073 31.9417L15.9073 31.9417Q13.8992 33.7825 13.3692 35.7069Q12.8393 37.6313 12.8393 43.2094L12.8393 43.2094Q12.8393 49.0106 13.5087 50.9908Q14.1781 52.971 17.1344 55.7043L17.1344 55.7043Q19.0868 57.5451 20.4255 58.2144Q21.7642 58.8838 25.1111 59.7205L25.1111 59.7205Q27.5097 60.2783 30.3545 60.4457L30.3545 60.4457Q33.1435 60.6688 35.7652 60.5014Q38.3869 60.3341 40.395 59.8321L40.395 59.8321Q42.4589 59.33 43.2398 58.4933L43.2398 58.4933Q43.6861 58.1029 44.1602 57.8518Q44.6343 57.6008 44.9132 57.7124L44.9132 57.7124Q45.1364 57.7682 46.001 57.2383Q46.8656 56.7083 47.8696 55.8159L47.8696 55.8159Q49.8219 54.0309 50.4913 52.0507Q51.1607 50.0704 51.1607 45.9427L51.1607 45.9427Q51.1607 43.2094 50.5471 42.6795Q49.9335 42.1496 46.9771 42.3727L46.9771 42.3727Q45.6384 42.4843 45.3316 42.6795Q45.0248 42.8747 45.0806 43.6557L45.0806 43.6557Q45.3037 46.9467 45.22 48.8154Q45.1364 50.684 44.6343 51.1303L44.6343 51.1303Q43.2398 52.5806 39.9488 53.5567Q36.6577 54.5329 35.5979 53.8077L35.5979 53.8077Q35.3747 53.6404 35.04 51.2418L35.04 51.2418Q34.7611 48.7875 34.538 45.7474Q34.3149 42.7074 34.2591 39.8626L34.2591 39.8626Q34.2033 37.0178 34.3707 36.0137L34.3707 36.0137Q34.5938 34.9539 34.9006 34.7029Q35.2074 34.4518 36.4903 34.4518L36.4903 34.4518Q37.2155 34.4518 37.8291 34.3403Q38.4427 34.2287 38.5542 34.0056L38.5542 34.0056Q38.6658 33.8383 39.2515 33.7825Q39.8372 33.7267 40.6181 33.8383L40.6181 33.8383Q41.399 33.9498 42.0963 33.894Q42.7936 33.8383 43.0167 33.6151L43.0167 33.6151Q43.2956 33.4478 43.6303 33.4199Q43.965 33.392 44.2439 33.5593L44.2439 33.5593Q44.969 34.0056 46.3078 33.392Q47.6465 32.7784 48.2043 31.7186L48.2043 31.7186Q48.8737 30.4356 48.8737 28.5391Q48.8737 26.6425 48.2601 26.6425L48.2601 26.6425ZM25.2784 34.0614L25.2784 34.0614Q25.4458 34.0614 25.6131 34.0614Q25.7805 34.0614 25.9478 34.0614L25.9478 34.0614Q26.7845 34.2287 26.9797 34.9818Q27.175 35.7348 27.3981 39.9741L27.3981 39.9741Q27.5097 42.3727 27.677 44.9944Q27.8443 47.6161 27.9559 48.9548L27.9559 48.9548Q28.0675 50.2378 28.0396 51.3534Q28.0117 52.469 27.8443 52.6364L27.8443 52.6364Q27.7328 52.8595 27.2307 53.1105Q26.7287 53.3615 26.1709 53.4731L26.1709 53.4731Q24.8322 53.752 22.9914 52.5248Q21.1507 51.2976 20.035 49.3453L20.035 49.3453Q19.3657 48.1181 19.1983 47.0025Q19.031 45.8869 19.1425 42.2611L19.1425 42.2611Q19.1983 38.747 19.3936 37.715Q19.5888 36.6831 20.2582 36.0137L20.2582 36.0137Q21.0391 35.2328 22.5452 34.6471Q24.0512 34.0614 25.2784 34.0614L25.2784 34.0614ZM28.7926 13.032L28.7926 13.032Q28.3464 12.9763 28.0396 12.8089Q27.7328 12.6416 27.7328 12.4742L27.7328 12.4742Q27.7328 12.3627 27.4818 11.9722Q27.2307 11.5817 26.8961 11.1913L26.8961 11.1913Q26.0036 10.243 25.8362 9.3226Q25.6689 8.4022 26.2825 7.2309L26.2825 7.2309Q26.5056 6.673 26.6451 6.1152Q26.7845 5.5574 26.6729 5.2785L26.6729 5.2785Q26.2825 4.3303 27.2865 3.8003Q28.2906 3.2704 29.964 3.4935L29.964 3.4935Q31.3027 3.6609 32.0837 4.1071Q32.8646 4.5534 33.9802 5.7806L33.9802 5.7806Q35.1516 7.0077 35.4863 7.6771Q35.821 8.3465 35.7094 9.0716L35.7094 9.0716Q35.2632 11.8049 33.6455 12.7253Q32.0279 13.6456 28.7926 13.032L28.7926 13.032ZM35.319 22.3474L35.319 22.3474Q34.4822 21.5665 34.3428 21.0366Q34.2033 20.5067 34.4822 19.0006L34.4822 19.0006Q34.5938 18.1081 34.7054 17.2156Q34.8169 16.3231 34.8727 15.9884L34.8727 15.9884Q34.9843 14.817 36.7135 14.0919Q38.4427 13.3667 39.0005 14.2592L39.0005 14.2592Q39.112 14.4823 39.4746 14.6218Q39.8372 14.7612 40.1719 14.7612L40.1719 14.7612Q40.5623 14.7612 41.1759 15.0959Q41.7895 15.4306 42.2915 15.9326L42.2915 15.9326Q43.0725 16.7136 43.2398 17.2993Q43.4072 17.885 43.184 19.5026L43.184 19.5026Q42.9609 21.7338 41.9847 22.5984Q41.0086 23.463 38.7216 23.463L38.7216 23.463Q37.4386 23.463 36.7414 23.212Q36.0441 22.961 35.319 22.3474L35.319 22.3474ZM21.3738 23.1284L21.3738 23.1284Q19.2541 22.7379 18.6684 19.8652Q18.0827 16.9925 19.7004 14.9844L19.7004 14.9844Q20.4255 14.1477 20.9275 13.9524Q21.4296 13.7572 22.6567 13.9245L22.6567 13.9245Q23.6608 14.0919 24.3859 14.4823Q25.1111 14.8728 25.7805 15.598L25.7805 15.598Q26.2825 16.2115 26.8403 16.6299Q27.3981 17.0483 27.6212 17.0483L27.6212 17.0483Q27.8443 17.0483 28.0396 17.3829Q28.2348 17.7176 28.2348 18.1639L28.2348 18.1639Q28.2348 18.6659 28.1232 19.0006Q28.0117 19.3353 27.8443 19.3353L27.8443 19.3353Q27.7328 19.3353 27.3702 19.7536Q27.0076 20.172 26.6172 20.7298L26.6172 20.7298Q26.2267 21.2876 25.5015 21.9012Q24.7764 22.5148 24.1628 22.7937L24.1628 22.7937Q23.4934 23.0726 23.0193 23.2399Q22.5452 23.4073 22.5452 23.4073L22.5452 23.4073Q22.4894 23.3515 22.1547 23.2678Q21.82 23.1841 21.3738 23.1284L21.3738 23.1284Z" fill-rule="nonzero" /></g></svg>
