<?xml version="1.0" encoding="UTF-8"?>
<svg xmlns="http://www.w3.org/2000/svg" width="64" height="64" viewBox="0 0 64 64"><title>NOTZ-Ancient-Evils</title><g fill="#000000" id="NOTZ-Ancient-Evils"><path d="M18.2896 16.6182C18.3458 16.6413 18.4019 16.6678 18.458 16.6975C19.5907 17.2588 20.6442 17.9721 21.3211 19.0718C21.4235 19.2369 21.5093 19.4318 21.7207 19.4351C21.7603 19.1708 21.6513 18.8571 21.6084 18.593C21.2418 16.3772 20.6672 14.2373 20.238 12.038C20.0827 11.2422 19.977 10.4298 19.845 9.6274C19.7459 9.0264 19.6468 8.4286 19.5477 7.8277C19.5048 7.5701 19.3199 7.1375 19.5477 6.936C19.3133 7.6262 18.9633 8.3098 18.5835 8.9372C18.4019 9.2344 18.1806 9.4293 17.9692 9.7033C17.758 9.9807 17.5599 10.1987 17.4244 10.5223C17.1735 11.1233 16.9258 11.3611 16.3248 11.5922C15.8988 11.754 15.5752 11.972 15.2746 12.3088C14.9708 12.6489 14.6704 12.9528 14.2576 13.1674C13.7326 13.4414 13.1414 13.4778 12.5669 13.5703C12.4149 13.5934 12.0154 13.5537 12.0286 13.7915C12.0319 13.8773 12.3059 14.0953 12.3654 14.1415C12.6427 14.3694 13.0093 14.4421 13.2967 14.6534C13.6137 14.8911 13.9141 15.0596 14.2906 15.2049C14.6175 15.3303 14.9543 15.3435 15.2681 15.512C15.5521 15.6638 15.8327 15.8092 16.1299 15.9413C16.8432 16.2484 17.5797 16.3111 18.2896 16.6182" /><path d="M44.3773 12.246C44.1759 12.1602 44.0603 12.0413 43.8787 11.8828C43.5518 11.6054 43.139 11.5625 42.822 11.3115C42.6436 11.1662 42.5281 10.9351 42.3828 10.76C42.1912 10.5322 41.9667 10.334 41.7818 10.1029C41.4779 9.7297 41.2534 9.2971 40.9529 8.9174C40.6029 8.4749 40.3254 7.9598 40.233 7.405C40.3254 7.6922 40.2099 8.1116 40.1307 8.389C39.8698 9.3302 39.5461 10.3208 39.1037 11.1893C39.0112 11.3743 38.9022 11.5427 38.7734 11.7045C38.5588 11.9687 38.3442 12.1867 38.2253 12.5169C38.0403 13.0353 37.9874 13.6066 37.8191 14.1382C37.6506 14.6732 37.4393 15.1983 37.1719 15.6935C36.8977 16.1988 36.7228 16.7602 36.5081 17.2952C36.4321 17.4834 36.0161 17.9458 36.092 18.1372C36.4981 18.0745 36.7789 18.4542 37.2246 18.3882C37.5186 18.3486 37.753 18.1769 38.0304 18.1009C38.3045 18.0249 38.6017 18.0547 38.8725 17.9557C39.2555 17.8136 39.6914 17.7443 40.0051 17.4867C40.2132 17.315 40.3981 17.1367 40.56 16.922C40.758 16.6645 40.9133 16.3475 41.1444 16.1229C41.3063 15.9677 41.4647 15.938 41.6563 15.8455C41.8379 15.7563 41.97 15.6045 42.1384 15.5021C42.5149 15.2742 42.9475 15.0199 43.3536 14.8615C43.882 14.66 44.2452 14.3793 44.7009 14.0359C45.1071 13.7288 45.5662 13.1872 46.035 13.0088C46.2761 12.9164 46.6262 12.8966 46.8936 12.8735C46.5799 12.7876 46.3983 12.5796 46.0515 12.5927C45.8865 12.5993 45.7246 12.6984 45.5529 12.6687C45.3515 12.639 45.2095 12.4706 45.0345 12.388C44.8562 12.3055 44.6811 12.3451 44.5094 12.2923C44.4599 12.279 44.417 12.2625 44.3773 12.246" /><path d="M43.4163 34.5989C42.9145 34.4305 42.5116 34.2224 42.0823 33.8988C41.8346 33.7107 41.5407 33.2814 41.227 33.2417C41.8445 33.2021 42.4455 33.0832 43.0762 33.0799C44.2122 33.0733 45.2426 33.2219 46.3521 33.4332C47.2634 33.6083 48.1947 33.9253 49.116 34.0111C49.6675 34.064 50.219 34.064 50.7737 34.0442C51.4573 34.0211 52.164 33.8229 52.8443 33.7173C53.366 33.6347 53.8679 33.4629 54.3732 33.3342C54.7596 33.2384 55.0237 32.5053 55.4266 32.6307C55.2648 33.0237 54.8916 33.3078 54.6671 33.6578C54.3006 34.2324 54.1387 34.8631 53.7325 35.4212C53.5906 35.6194 53.3924 35.8307 53.3 36.0618C53.234 36.2269 53.2174 36.3657 53.1216 36.5307C53.0093 36.7223 52.8212 36.8279 52.7122 36.9963C52.5933 37.178 52.5734 37.4323 52.5504 37.6403C52.5108 38.0299 52.3687 38.3998 52.3357 38.7828C52.3159 39.0471 52.3952 39.3145 52.4381 39.5754C52.5075 39.9948 52.9037 41.101 52.098 40.7741C51.8569 40.675 51.563 40.3217 51.3616 40.1368C51.0676 39.8627 50.7638 39.6612 50.46 39.4268C50.1232 39.1659 49.9845 38.8852 49.5948 38.6937C49.1953 38.4989 48.8551 38.2446 48.4655 38.02C47.9866 37.7393 47.4815 37.4356 47.1612 37.003C46.7748 36.4779 46.3323 35.791 45.7015 35.5632C44.9255 35.2791 44.199 34.8631 43.4163 34.5989" /><path d="M34.7678 40.6189C34.7777 40.6222 34.7909 40.6256 34.8008 40.6322C34.8768 40.6684 35.0221 41.2529 35.0716 41.3421C35.5108 42.1049 35.841 42.9932 36.158 43.8154C36.2241 43.9905 36.2769 44.1655 36.31 44.3471C36.3562 44.6212 36.3397 44.9019 36.4157 45.1694C36.6633 46.0444 37.4591 46.8535 37.9643 47.5965C38.813 48.8547 39.8665 49.8849 40.8241 51.0473C41.2006 51.5031 40.91 51.9852 40.3023 51.8531C39.949 51.7772 39.6452 51.5559 39.2787 51.5064C38.9319 51.4568 38.5819 51.5196 38.2352 51.4733C37.796 51.4107 37.5186 51.2158 37.0662 51.2819C36.0556 51.4337 34.9956 51.5031 34.1304 52.0678C33.4799 52.4938 32.9845 53.0584 32.3671 53.5241C32.0203 53.7849 31.6307 53.9765 31.5811 54.4454C31.4194 53.8047 31.6109 53.0617 31.7925 52.4509C31.9312 51.9885 32.093 51.5361 31.9807 51.0672C31.9047 50.7402 31.8288 50.4497 31.8618 50.1129C31.9279 49.4161 32.268 48.782 32.4232 48.1051C32.7204 46.837 32.9582 45.5657 33.4172 44.3471C33.5526 43.9905 33.6352 43.6207 33.8101 43.2772C34.0711 42.7555 34.1271 42.2436 34.1899 41.669C34.213 41.4642 34.4706 40.5397 34.7678 40.6189" /><path d="M17.9396 38.2677C17.1603 39.1593 16.414 39.9915 15.3968 40.5958C14.9345 40.8699 14.6307 41.2463 14.3104 41.6723C14.1353 41.9101 13.8976 42.1082 13.7424 42.3625C13.6434 42.5243 13.5971 42.8843 13.3924 42.9437C13.2735 42.7026 13.333 42.2238 13.3231 41.9563C13.3033 41.3553 13.1844 40.2721 12.5041 40.0509C12.2432 39.9683 12.0088 40.0641 11.7677 39.8826C11.6389 39.7868 11.5927 39.6216 11.4671 39.5291C11.3186 39.4235 11.127 39.4268 10.9752 39.3244C10.7869 39.1989 10.6647 38.9876 10.5261 38.8126C10.1826 38.3866 9.9118 38.0663 9.4694 37.7294C9.2679 37.5743 8.7231 37.2473 8.7132 36.9666C9.0236 36.7983 9.3868 36.9072 9.7236 36.9105C10.0406 36.9171 10.3312 36.851 10.6417 36.7983C11.4671 36.6595 12.2234 36.3723 13.0456 36.2269C13.7622 36.0981 14.4359 35.8174 15.1525 35.6853C15.7237 35.583 16.2554 35.4674 16.7838 35.2132C17.2329 34.9952 17.715 34.6484 18.2401 34.7112C20.3271 34.9489 18.4877 37.6369 17.9396 38.2677" /><path d="M45.2194 26.6736C45.0708 26.274 44.8694 25.9206 44.5853 25.6564C44.1626 25.2668 43.9381 24.9861 43.7268 24.4314C43.4758 23.7609 43.281 23.008 42.9475 22.3707C42.5974 21.7103 42.1186 21.2281 41.4053 21.0102C40.9727 20.8814 40.091 21.1224 39.8566 21.5187C39.4999 22.1231 39.2456 22.7307 39.4273 23.4208C39.6122 24.1209 39.8797 24.8507 40.1108 25.5376C40.408 26.4258 40.7349 27.2613 40.7878 28.2091C40.834 29.0149 40.8142 29.9625 40.6491 30.7584C40.5897 31.0325 40.4708 31.2306 40.4807 31.5146C40.5071 32.4591 40.4741 33.377 40.1009 34.2753C39.4438 35.8703 38.1691 37.0162 36.8647 38.0663C36.1878 38.6145 35.3919 39.2452 34.5597 39.5093C33.7276 39.7703 32.8195 39.6679 31.9675 39.7868C30.7522 39.9584 29.646 40.1665 28.411 40.1269C27.3278 40.0906 26.2612 39.9518 25.2607 39.4994C23.6789 38.7795 22.5429 36.9072 21.8857 35.365C21.5985 34.6848 21.2848 34.0111 21.0535 33.3111C20.8257 32.6274 20.7498 31.9241 20.6276 31.2174C20.5616 30.8476 20.4724 30.4777 20.4658 30.1013C20.4592 29.7579 20.5418 29.4144 20.5352 29.071C20.5252 28.5063 20.4625 27.9779 20.5021 27.4033C20.5913 26.1716 20.5748 24.9365 20.6936 23.7082C20.7696 22.9255 20.872 22.4368 21.2352 21.7136C21.463 21.2546 21.7537 20.8418 21.998 20.3927C22.2754 19.8842 22.6188 19.5836 23.0217 19.1873C22.9754 19.1708 22.9293 19.1609 22.8831 19.1543C22.992 18.5038 24.2138 18.2826 24.7422 18.0844C24.9766 17.9952 25.2144 17.916 25.4555 17.8599C25.8451 17.7707 26.2414 17.7476 26.6377 17.698C27.2287 17.6287 27.8034 17.4636 28.3911 17.3942C28.7049 17.3579 29.0021 17.3612 29.2927 17.49C29.5535 17.6055 29.7649 17.8136 30.0555 17.8599C30.706 17.9655 31.3203 17.3315 31.8486 17.0145C32.0435 16.8989 32.268 16.8229 32.4596 16.7008C32.7105 16.5356 32.8955 16.321 33.153 16.1691C33.6186 15.9016 33.9422 15.4228 33.9455 14.845C33.9488 14.2868 33.6715 14.1283 33.1563 14.0128C32.2482 13.808 31.4919 14.2241 30.5971 14.191C30.2173 14.1745 29.6757 14.1053 29.362 13.874C29.1969 13.7518 29.1308 13.5868 28.9327 13.4976C28.7148 13.3985 28.4209 13.3919 28.1897 13.4315C27.9454 13.4679 27.7043 13.5141 27.4567 13.5537C27.0406 13.6231 26.6278 13.6925 27.1364 13.9137C26.9877 13.9038 26.8325 13.9533 26.6839 13.9764C25.9244 14.102 25.2111 14.3033 24.5275 14.6732C23.56 15.1983 22.8599 16.0404 21.9815 16.6843C21.0173 17.3876 19.9902 18.1703 19.277 19.1477C18.7354 19.8907 18.0683 20.4752 17.5764 21.2645C16.9093 22.3344 16.4403 23.3185 16.1002 24.5436C15.8691 25.3889 15.6148 26.2343 15.5587 27.1161C15.4761 28.3346 15.9021 29.5431 16.0012 30.7518C16.0936 31.8481 16.2521 32.9082 16.4271 33.9946C16.5823 34.9489 16.5989 35.9264 17.1504 36.7487C18.3128 38.4823 19.3232 40.3118 20.8786 41.7252C22.0872 42.8182 23.5005 44.05 25.0031 44.6674C25.8385 45.0109 26.6674 45.2816 27.5756 45.2882C28.6818 45.2948 29.7517 45.0142 30.8513 44.9481C32.0302 44.8788 32.8426 44.6741 33.8828 44.0995C34.8438 43.5678 35.8311 43.1848 36.7393 42.5541C37.6176 41.9398 38.4927 41.3355 39.4372 40.8369C40.3486 40.3547 41.2765 39.9551 42.0988 39.3178C42.7989 38.7729 43.456 38.1885 43.8919 37.3959C44.2056 36.8279 44.4632 36.1906 44.734 35.6028C45.2689 34.4471 45.7015 33.1724 45.8006 31.8944C45.86 31.1613 45.827 30.4348 45.7279 29.7083C45.6124 28.8398 45.5728 27.6279 45.2194 26.6736" /><path d="M33.9918 26.8683C33.7308 26.5943 33.1728 26.023 32.8096 25.8909C32.334 25.7192 31.8519 26.1253 31.3698 25.8579C31.1816 25.7522 30.9868 25.6202 30.8282 25.488C30.5476 25.2602 30.4419 25.1215 30.0588 25.2074C29.8508 25.2536 29.7517 25.3625 29.5568 25.4286C29.3323 25.5046 29.1969 25.5706 29.0384 25.7819C29.0054 25.8249 28.9823 25.8744 28.9658 25.9107C28.946 25.9933 28.9426 25.9702 28.9658 25.9107C28.9823 25.8513 29.012 25.7324 29.0483 25.5112C28.6389 25.6003 28.4902 26.2938 28.3713 26.6108C28.0081 27.5948 27.4831 28.7902 27.6746 29.8735C27.8067 30.6396 28.0873 30.983 28.7775 31.2835C29.0583 31.4057 29.329 31.5146 29.5436 31.7491C29.7319 31.9538 29.8277 32.1454 30.105 32.2477C30.7589 32.4921 31.5745 32.2411 32.2581 32.2543C32.9417 32.2708 33.4172 32.1355 33.9356 31.65C34.2427 31.3595 34.4805 30.8443 34.6555 30.4645C34.9692 29.7942 34.8866 29.0281 34.6654 28.3379C34.5135 27.8558 34.3418 27.2349 33.9918 26.8683" /><path d="M34.8207 49.4029L36.5312 48.4749C35.9401 48.5344 35.3688 49.0727 34.8207 49.4029" /><path d="M34.5663 49.5382C34.6489 49.4986 34.7348 49.4524 34.8207 49.3996Z" /><path d="M41.0157 56.0272C41.0585 56.3475 41.0552 56.5885 41.0289 56.9187C40.9992 57.2721 41.0684 57.7179 40.9595 58.0646C40.8571 58.3849 40.6523 58.6756 40.5335 58.9959C40.3519 59.4913 40.1703 59.7653 39.8104 60.1352C39.4967 60.4555 39.2357 60.7989 38.7965 60.9607C38.4927 61.0729 38.1427 61.0829 37.8224 61.1324C37.1818 61.2381 36.3496 61.5155 35.7089 61.4066C35.2697 61.3306 34.8075 61.0597 34.3881 60.898C33.896 60.7097 33.4072 59.8808 33.1728 59.4384C32.9945 59.0983 32.9516 58.735 32.8856 58.3651C32.836 58.1142 32.7732 57.8632 32.7072 57.6155C32.6081 57.249 32.4761 56.8692 32.4992 56.4861C32.5421 55.7167 33.1167 55.0365 33.6781 54.5609C33.9687 54.3166 34.3187 54.1548 34.6027 53.9071C34.9626 53.5934 35.207 53.2104 35.6264 52.9561C36.1911 52.6126 36.6897 52.5895 37.3006 52.8009C37.578 52.9 37.8488 53.0056 38.1394 53.0551C38.5257 53.1212 38.9584 52.999 39.3282 53.1047C39.8401 53.2533 40.1373 53.8311 40.4576 54.2142C40.877 54.7195 40.9298 55.3931 41.0157 56.0272M41.0717 51.7013C40.3089 50.8955 38.8097 50.0534 37.5846 49.7595C36.8217 49.5779 35.9335 49.4756 35.1245 49.5779C34.8735 49.6109 34.5663 49.6373 34.289 49.6902L34.5663 49.5382C34.5597 49.5415 34.5531 49.5448 34.5465 49.5481C34.4475 49.5944 34.3517 49.6439 34.2526 49.6935C34.1502 49.7133 34.0545 49.7364 33.9654 49.7628C33.4931 49.9114 33.3742 50.1657 32.9945 50.3902L33.6781 50.0204C32.8624 50.5389 32.1888 51.2059 31.6307 51.9324C29.996 54.0558 29.788 57.0244 30.0522 59.3624C30.1678 60.3663 30.3494 61.1357 31.317 61.7698C32.4463 62.5095 33.8828 62.9157 35.1178 63.5266C36.2142 64.0715 37.3402 63.9327 38.6414 63.9526C39.8928 63.9724 40.4675 63.8237 41.2633 62.9025C44.2419 59.4615 43.9877 54.7855 41.0717 51.7013" /><path d="M10.4732 42.9041C10.2849 43.1154 10.0902 43.3795 9.859 43.5381C9.6807 43.657 9.4892 43.7165 9.3207 43.8584C9.007 44.1258 8.7395 44.5122 8.3663 44.7038C8.1616 44.8095 7.9338 44.8689 7.729 44.9778C7.3493 45.1793 7.0224 45.4435 6.6063 45.5789C6.2265 45.6977 5.8534 45.6152 5.4703 45.7241C5.0906 45.8298 4.7769 45.9851 4.3707 45.9818C3.9975 45.9785 3.588 45.8728 3.238 45.7307C2.5743 45.4666 2.637 45.1364 2.7096 44.5155C2.7889 43.8154 2.8979 43.0923 3.0861 42.4087C3.2711 41.7351 3.6244 41.1737 3.915 40.5463C4.2881 39.7438 4.6613 38.9083 5.609 38.7399C5.7179 38.2611 6.4247 38.2314 6.8869 38.2843C7.2766 38.3272 7.6696 38.4956 8.0526 38.5781C8.1848 38.6079 8.3663 38.5913 8.4919 38.6376C8.7527 38.73 8.9938 39.0504 9.1886 39.2319C9.8986 39.899 11.0577 40.5496 11.0577 41.6426C11.061 42.1512 10.8067 42.5243 10.4732 42.9041M12.0385 36.7289C11.6719 36.7355 11.3648 36.8246 11.0181 36.6793C10.5624 36.4944 10.2718 36.1113 9.7831 35.9661C9.3802 35.8439 8.9971 35.867 8.581 35.8769C6.7384 35.933 4.9254 36.1906 3.2149 36.9402C-0.2855 38.4724 -0.1203 42.7092 0.1339 45.9223C0.2759 47.7154 2.6138 49.0826 4.2584 49.0958C5.5958 49.109 7.1644 49.0958 8.4621 48.749C9.7269 48.4155 10.5162 47.5338 11.345 46.5728C12.0451 45.7605 12.6163 44.8656 13.3824 44.1094C14.1651 43.3432 14.3335 42.3493 14.5151 41.2992C14.8817 39.1725 14.1057 37.3695 12.0385 36.7289" /><path d="M16.8564 8.214C16.8531 8.7787 16.6385 9.0759 16.3446 9.5382C15.9351 10.1723 15.453 10.3902 14.7331 10.5157C14.2212 10.6049 13.683 10.7501 13.1645 10.6478C12.9631 10.6082 12.7716 10.5223 12.5735 10.4628C12.3092 10.3836 11.9229 10.41 11.6851 10.2614C11.5002 10.1491 11.4045 9.9047 11.2459 9.7661C11.0775 9.6174 10.8761 9.5811 10.7308 9.4128C10.5128 9.1584 10.4996 8.5773 10.4468 8.2537C10.3675 7.722 10.427 7.2497 10.6053 6.7445C10.9091 5.8925 11.5002 5.341 12.0088 4.6311C11.629 4.6311 12.372 4.2975 12.6229 4.2612C12.8541 4.2249 13.0754 4.1687 13.3099 4.172C13.7622 4.1852 14.0397 4.4099 14.4029 4.6377C15.2648 5.1793 15.6512 6.0445 16.3545 6.7512C16.8103 7.2101 16.863 7.5701 16.8564 8.214M19.2307 4.9348C19.0128 4.7731 18.7387 4.7037 18.5009 4.5815C18.1047 4.3768 17.7348 4.116 17.3914 3.8319C16.7706 3.3201 16.2422 2.9898 15.486 2.7422C14.8256 2.5276 14.4524 2.2898 13.7556 2.3129C12.6923 2.3492 11.6752 2.4054 10.6285 2.6167C8.2046 3.1021 7.1182 4.8656 7.4748 7.296C7.6432 8.422 7.696 9.9014 8.1616 10.9351C8.6603 12.038 9.9547 13.0584 11.0841 13.3787C11.6125 13.5273 12.1607 13.5504 12.6857 13.7189C13.1249 13.8608 13.4683 14.1547 13.891 14.3232C14.6869 14.6336 15.6314 14.2241 16.3083 13.7981C16.9621 13.3853 17.3881 12.781 17.9594 12.279C18.6033 11.7144 19.0227 11.5427 19.1713 10.7468C19.2109 10.5223 19.277 10.3043 19.3529 10.0864C19.452 9.7991 19.5609 9.5117 19.6336 9.2212C19.7591 8.7456 19.6633 8.2999 19.7129 7.8277C19.7492 7.4975 19.8549 7.253 19.8021 6.9063C19.6931 6.1435 19.9275 5.4599 19.2307 4.9348" /><path d="M50.2223 6.6289C50.3015 7.3158 49.9019 7.9762 49.5849 8.5574C48.8684 9.8652 47.5771 10.5851 46.1044 10.694C45.1369 10.7666 43.3339 10.6247 43.1258 9.426C43.0366 8.9009 42.9211 8.3725 42.8616 7.8442C42.8286 7.5437 42.8649 7.253 42.9178 6.9558C42.9705 6.6653 42.9508 6.2393 43.0828 5.9652C43.2017 5.7241 43.4461 5.4897 43.5947 5.2586C43.7631 4.9943 43.9679 4.816 44.199 4.6079C44.2948 4.5188 44.4368 4.3471 44.5886 4.2513C44.1924 4.3669 44.1891 4.3372 44.1891 4.3042C44.3179 4.2447 44.5061 4.2876 44.6118 4.2084C44.7802 4.0863 44.6745 3.8616 44.7703 3.6999C44.8924 3.4984 45.1699 3.4687 45.3647 3.3861C45.9063 3.1517 46.4412 3.0658 47.0422 3.1352C48.1485 3.2673 48.766 4.1621 49.499 4.8952C50.0076 5.4071 50.1397 5.919 50.2223 6.6289M52.4216 5.0802C52.0517 4.6872 51.8073 4.2018 51.4903 3.7725C50.9951 3.0922 50.4006 2.5078 49.7104 2.0124C49.4628 1.834 49.2052 1.6525 48.9377 1.484C48.6141 1.2793 48.274 1.0943 47.9273 0.9656C47.4682 0.7939 46.887 1.0053 46.3983 1.0877C46.1242 1.1307 45.8501 1.1802 45.5728 1.2232C45.2755 1.2694 45.2689 1.3223 45.0543 1.4807C44.7868 1.6789 44.5061 1.702 44.3179 2.0058C44.1659 2.2501 44.1527 2.4714 43.8522 2.5639C43.6112 2.6365 43.3932 2.5902 43.1555 2.7158C42.8418 2.8776 42.5545 3.1319 42.2771 3.3466C41.4548 3.9772 40.9595 4.9216 40.5699 5.8727C39.8895 7.5404 39.6815 9.4854 40.2496 11.2323C40.5368 12.1206 41.1807 12.6687 41.7719 13.3556C42.538 14.2439 42.9079 14.5576 44.1461 14.508C46.1671 14.4256 48.1716 14.4156 50.1364 13.8773C50.5228 13.7716 50.7275 13.5009 50.9158 13.1608C51.2823 12.5103 51.5002 11.7673 51.6918 11.0473C51.9328 10.1491 52.524 9.4128 52.8377 8.5376C53.0754 7.8673 53.0457 7.438 52.9302 6.7578C52.8245 6.1501 52.8575 5.5392 52.4216 5.0802" /><path d="M61.1725 39.0041C60.8324 39.7174 60.3734 40.6519 59.6667 41.0878C59.1581 41.4049 58.501 41.5369 57.9232 41.636C57.3683 41.7318 57.0513 41.6459 56.5395 41.4246C55.8823 41.1439 55.1691 41.1208 54.5152 40.8137C54.36 40.7411 54.0992 40.6585 53.9836 40.5232C53.7821 40.282 53.7986 39.6513 53.7523 39.3707C53.6699 38.8786 53.6236 38.5286 53.8217 38.0398C54.0793 37.4025 54.3072 36.6067 54.7365 36.0651C54.9478 35.8009 55.1327 35.7613 55.4134 35.5797C55.3209 35.3155 55.5885 35.0877 56.0903 35.1273C56.3678 35.1504 56.6055 35.0711 56.8697 35.0777C57.0612 35.0844 57.2296 35.1405 57.4245 35.1174C57.6193 35.0976 57.8042 35.015 58.0023 35.0216C58.3887 35.0348 58.894 35.1603 59.277 35.2692C59.7261 35.3947 60.0729 35.6359 60.4031 35.9628C60.7498 36.3062 61.0338 36.7421 61.265 37.1747C61.5985 37.7955 61.4664 38.3932 61.1725 39.0041M62.3481 34.1828C61.3542 32.7265 59.4752 31.8977 57.758 31.9802C56.9357 32.0199 56.0738 31.9571 55.2681 32.1883C54.5614 32.3897 54.0827 32.8521 53.4915 33.2681C52.9269 33.6644 52.4744 33.8394 52.1145 34.4636C51.8403 34.9357 51.52 35.3716 51.1997 35.8141C50.612 36.6232 50.2025 37.6303 50.7176 38.6112C50.6846 40.1863 51.2691 41.8671 52.2498 43.0031C54.0265 45.0637 56.8201 45.2915 59.3101 44.8227C61.4136 44.4231 63.6129 43.0658 63.92 40.8236C64.2271 38.5715 63.636 36.075 62.3481 34.1828" /><path d="M16.4337 5.6086C16.4667 5.8034 16.5097 5.9916 16.5526 6.1435C16.6814 6.5761 17.0282 6.5034 17.4013 6.4869C18.1014 6.4539 18.8212 6.4374 19.4983 6.2327C20.2742 6.0015 21.0074 5.6119 21.7504 5.2981C22.7608 4.8722 23.7779 4.7202 24.8479 4.5287C24.9337 4.5122 25.0196 4.4957 25.1021 4.4792C25.9013 4.3207 26.6773 4.0697 27.4765 3.9145C28.1798 3.7758 29.0219 3.647 29.7352 3.6801C30.4022 3.7098 31.0759 3.8749 31.7364 3.9607C32.3638 4.0433 32.9812 4.0004 33.6054 4.0697C34.2427 4.1423 34.8834 4.3174 35.5042 4.4759C36.1547 4.6443 36.7756 4.9051 37.3865 5.1859C37.9578 5.4434 38.5654 5.8331 39.1862 5.9454C39.6056 6.0214 39.9688 5.9091 40.233 6.3119C40.3519 6.4902 40.3981 6.7115 40.5732 6.8435C40.7316 6.9625 40.9661 7.0814 41.1378 7.1871C41.5374 7.4215 41.5275 7.1937 41.653 6.8634C41.7686 6.5596 42.0559 6.0774 42.2639 5.8397C42.5446 5.5194 42.9574 5.0306 43.3041 4.7929C43.3569 4.7566 43.6376 4.6707 43.6608 4.6179C43.7136 4.4924 43.5452 4.2216 43.4659 4.1291C43.3734 4.0235 43.2711 4.0004 43.1555 3.9046C42.8484 3.6536 42.8781 3.1748 42.571 2.9503C42.396 2.8215 42.211 2.8875 42.046 2.762C41.8742 2.6266 41.8973 2.4384 41.8016 2.2732C41.7157 2.1247 41.6365 2.1082 41.4548 2.0091C40.9992 1.7615 40.5368 1.5336 40.0679 1.319C38.5158 0.6123 36.6963 0.4901 35.0121 0.3381C33.1926 0.1764 31.3467 0.1698 29.5205 0.0608C28.6422 0.0112 27.777 0.0509 26.8985 0.0575C25.9938 0.0641 25.0823 0.0046 24.1841 0.1268C23.3585 0.2391 22.5297 0.4405 21.7339 0.6749C20.8522 0.9326 19.8945 1.1802 19.0723 1.6062C18.4151 1.9463 17.4112 2.4714 16.8894 3.0889C16.7211 3.2904 16.4998 3.5711 16.4667 3.8385C16.4502 4.007 16.5229 4.1621 16.5064 4.3339C16.4899 4.5122 16.3942 4.6773 16.381 4.859C16.3677 5.0736 16.3909 5.3443 16.4337 5.6086" /><path d="M5.2656 37.987C5.609 37.9507 5.9558 37.9375 6.2926 37.8781C6.7252 37.8021 7.1248 37.8021 7.564 37.8946C7.8479 37.954 8.2244 38.1984 8.4985 38.02C8.406 37.8616 8.1782 37.7724 8.0328 37.5973C7.8513 37.3794 7.7654 37.1087 7.6101 36.8741C7.2172 36.2864 6.788 35.7117 6.494 35.0612C6.1506 34.3017 5.8104 33.453 5.3151 32.786C4.9188 32.2543 4.6943 31.6071 4.7075 30.9434C4.7339 29.6885 4.1065 28.536 4.2452 27.2745C4.3377 26.4226 4.6679 25.6235 4.9287 24.8177C5.2557 23.8138 5.5595 22.8 5.817 21.7764C5.9789 21.1357 6.0713 20.5347 6.3223 19.9171C6.6723 19.0487 6.9332 18.1075 7.3724 17.2786C7.6233 16.8032 7.9239 16.3508 8.1749 15.8719C8.4291 15.3865 8.5381 14.8516 8.8419 14.3958C9.1919 13.8773 9.3571 13.2632 9.6906 12.7348C9.7699 12.6059 9.9283 12.3022 10.0439 12.3121C9.9316 11.9918 10.2256 11.797 10.3246 11.5228C10.4138 11.2719 10.384 10.9384 10.4501 10.6741C10.5426 10.2977 10.5228 9.7661 10.3411 9.3863C10.1364 8.9603 9.6245 8.9207 9.1985 9.0033C8.8551 9.066 8.6537 9.2311 8.4291 9.4986C8.2046 9.7628 7.9932 10.1062 7.8678 10.4331C7.8083 10.5884 7.8083 10.7402 7.7654 10.8987C7.6465 11.3181 7.346 11.7441 7.1479 12.1338C6.953 12.5103 6.7549 12.8867 6.5435 13.2566C6.1869 13.8806 5.7708 14.5047 5.5859 15.2115C5.5232 15.4558 5.4868 15.7068 5.3844 15.9413C5.226 16.2946 4.9452 16.5654 4.757 16.9022C4.5523 17.2687 4.4268 17.6716 4.2353 18.0448C3.6541 19.1774 3.0927 20.396 2.3926 21.4593C1.3822 22.9948 1.0981 24.9894 1.2798 26.7925C1.4514 28.5261 1.3425 30.2598 1.3954 32.0034C1.3987 32.1685 1.4053 32.3336 1.4086 32.4987C1.4415 33.8724 1.8246 35.1967 1.8708 36.5703C1.894 37.1648 2.0195 37.7393 2.0822 38.3272C2.1153 38.6277 2.0723 39.4334 2.4025 39.5952C2.6337 39.7108 2.8384 39.4499 2.9738 39.3376C3.205 39.1395 3.3866 38.981 3.6541 38.8126C4.0966 38.5319 4.2914 38.1786 4.7835 38.0663C4.9419 38.0299 5.1038 38.0035 5.2656 37.987" /><path d="M48.6802 12.8405C48.6703 12.7744 48.6604 12.7116 48.6471 12.6456C48.6604 13.0319 48.8254 13.207 49.1259 13.4216C49.476 13.6693 49.869 13.8047 50.2058 14.0722C50.7077 14.4718 51.0775 15.01 51.4309 15.5417C51.9725 16.3508 52.3654 17.2456 52.8212 18.1042C53.3495 19.1015 53.8118 20.1715 54.1783 21.2414C54.7266 22.8364 54.9279 24.5204 55.2021 26.1749C55.3837 27.2679 55.5455 28.3115 55.5885 29.4144C55.6215 30.2532 55.529 31.1117 55.4497 31.9439C55.3969 32.4756 55.529 32.9742 56.1828 32.895C56.8598 32.8091 57.5368 32.7364 58.217 32.6902C58.8048 32.6539 59.3001 32.9016 59.7724 33.2087C60.0597 33.3969 60.7828 33.7206 61.1461 33.6215C61.1461 33.3408 61.0602 33.0601 61.0141 32.7827C60.8687 31.9109 60.73 31.0391 60.5517 30.1739C60.1951 28.4105 59.8649 26.6603 59.5709 24.8903C59.3794 23.7148 59.2671 22.4731 58.9666 21.3206C58.6133 19.9634 57.5928 18.8604 56.906 17.6782C56.348 16.7173 55.7568 15.8125 55.1592 14.878C54.5911 13.993 54.2741 12.9989 53.6203 12.1536C53.0523 11.4139 52.3919 10.727 51.7876 10.0104C51.6323 9.8288 51.5101 9.6141 51.2856 9.515C51.104 9.4359 50.896 9.4656 50.7077 9.3962C50.8431 9.3599 50.9752 9.3863 51.0874 9.4755C50.9488 9.3467 50.8068 9.8454 50.612 9.8189C50.3544 9.7826 50.0043 9.951 49.8228 10.1029C49.2184 10.5983 48.591 11.4799 48.5646 12.2989C48.5315 12.3121 48.7132 12.8273 48.6802 12.8405" /><path d="M53.9869 42.4186C53.7259 42.7786 53.541 43.1121 53.3528 43.5018C52.9862 44.2712 52.4943 45.0043 52.0914 45.7539C51.6786 46.5134 51.2592 47.263 50.8695 48.0357C50.4402 48.8844 49.9184 49.6604 49.3637 50.4199C49.192 50.6544 49.0798 50.9252 48.8452 51.1068C48.6306 51.2753 48.3664 51.3611 48.1452 51.5493C47.8975 51.7607 47.6201 51.9357 47.3725 52.1471C46.9035 52.5367 46.3092 53.1014 45.7081 53.2863C45.3184 53.4085 44.8232 53.4151 44.4236 53.4811C44.0603 53.5439 43.6509 53.6727 43.2843 53.6859C42.8583 53.6991 42.3101 53.5373 41.8973 53.4514C41.6365 53.3952 41.3954 53.3095 41.1708 53.1707C41.0717 53.1113 40.9397 53.0981 40.8604 53.0056C40.7283 52.8471 40.7746 52.6952 40.6128 52.5499C40.4939 52.8438 40.7217 52.9495 40.8505 53.1542C41.0849 53.5274 41.2402 54.0954 41.3921 54.5147C41.8445 55.7729 42.1285 57.0773 42.3464 58.3882C42.3927 58.6492 42.3861 59.0256 42.5149 59.2667C42.9837 59.3591 43.5121 58.7713 43.8456 58.5831C44.6943 58.101 45.6487 57.8236 46.5535 57.4637C47.531 57.074 48.8948 56.9287 49.6411 56.146C50.1133 55.654 50.4799 55.0794 50.9686 54.5907C51.2559 54.3001 51.563 54.0359 51.8139 53.709C52.6593 52.6126 53.5179 51.5427 54.393 50.4695C54.8124 49.951 55.2351 49.4524 55.5191 48.8415C55.7073 48.4353 55.8031 47.9037 56.054 47.5338C56.1696 47.3621 56.3678 47.2597 56.4899 47.1012C56.6485 46.8931 56.6914 46.5761 56.7971 46.3384C56.9324 46.0378 57.0778 45.8034 57.2792 45.5624C57.6061 45.1694 57.7646 44.5684 57.7679 44.0863C57.7679 43.9079 57.8637 43.6273 57.8109 43.4621C57.7184 43.1815 57.5632 43.3268 57.3155 43.3531C56.4767 43.4522 55.6875 43.0427 54.9709 42.663C54.4096 42.3658 54.0496 41.8308 53.3726 41.8209C53.3594 41.7879 53.3462 41.7516 53.9869 42.4186" /><path d="M9.9845 49.1519C10.0968 49.2377 10.2058 49.3302 10.3114 49.426C11.0181 50.0666 11.6323 50.8195 12.3522 51.4403C12.6262 51.6781 12.9466 51.863 13.2174 52.1107C13.4287 52.3022 13.5806 52.7051 13.8217 52.8339C14.043 52.9495 14.3005 52.8009 14.5349 52.8273C14.8223 52.8603 15.0039 53.0155 15.2516 53.1773C16.0705 53.7123 16.906 54.2208 17.758 54.6997C18.6628 55.2115 19.6435 55.5583 20.555 56.0535C21.1923 56.4004 21.7207 56.8263 22.4438 56.9881C23.5138 57.2258 24.6497 57.5363 25.7494 57.424C26.4593 57.3514 27.1727 57.1004 27.886 57.2655C28.8469 57.4868 29.3422 58.2001 29.9267 58.9034C30.6037 59.7224 31.5217 59.2534 31.591 58.2727C31.6439 57.4736 31.5151 56.5753 31.7562 55.796C31.8849 55.3799 32.1492 55.0001 32.2415 54.5642C32.3274 54.168 32.3241 53.7321 32.3902 53.3326C32.4728 52.7877 32.3638 52.0249 32.6576 51.546C32.3043 51.8861 32.1756 52.081 31.9477 52.4971C31.4325 53.4415 29.8508 53.4217 28.9195 53.4712C27.2387 53.5637 25.5083 53.3952 23.844 53.2203C23.3223 53.1674 22.8203 53.0353 22.3084 52.933C21.8923 52.8504 21.4597 52.8901 21.0502 52.8108C20.7035 52.7447 20.4559 52.5004 20.1554 52.3352C19.8878 52.1867 19.627 52.0975 19.3331 52.0149C18.5934 51.8035 18.1806 51.4601 17.55 51.0243C16.6814 50.4233 15.836 49.9147 15.0699 49.1651C14.525 48.6335 13.9637 48.1744 13.3297 47.755C12.6857 47.3357 11.9823 46.8799 11.5035 46.2724C11.2327 45.9289 11.1138 45.6185 10.9917 45.2157C10.886 44.8854 10.7341 44.793 10.3543 44.7864C9.8095 44.7798 9.6509 45.3708 9.291 45.7506C8.9212 46.1435 8.5348 46.4704 8.2145 46.9196C8.0824 47.1045 8.0361 47.3158 7.7918 47.3687C7.914 47.6626 8.3268 47.9004 8.5579 48.0985C9.0103 48.4914 9.5155 48.7886 9.9845 49.1519" /></g></svg>
