<?xml version="1.0" encoding="UTF-8"?>
<svg xmlns="http://www.w3.org/2000/svg" width="64" height="64" viewBox="0 0 64 64"><title>EOTE-Elder-Things</title><g fill="#000000" id="EOTE-Elder-Things"><path d="M12.0091 21.0716C12.0789 21.2139 12.1151 21.3813 12.1877 21.5264C12.277 21.7134 12.316 21.9199 12.4081 22.0957C12.5086 22.2938 12.6174 22.4221 12.7569 22.5198C12.7764 22.6649 12.7876 22.6593 12.9718 22.6705C13.0053 22.6705 13.0415 22.6733 13.0778 22.6733C13.0973 22.6816 13.1113 22.6872 13.1308 22.6956C13.4154 22.7765 13.7196 22.7849 14.0154 22.7653C14.2944 22.7486 14.459 22.5616 14.6962 22.4389C14.8608 22.3524 14.8804 22.3552 15.0087 22.2129C15.0673 22.1515 15.1287 22.0845 15.1873 22.0231C15.3882 21.9059 15.5891 21.7803 15.8123 21.6492C16.362 21.3227 16.7443 21.0325 17.1824 20.5972C17.2857 20.4968 17.3861 20.3377 17.5424 20.307C17.8074 20.254 17.8688 20.6 17.9693 20.8344C18.0837 21.1079 18.2511 21.359 18.3544 21.6185C18.4241 21.7943 18.4771 22.0147 18.5134 22.1961C18.5469 22.3579 18.6055 22.5282 18.6278 22.6872C18.6418 22.7821 18.6055 22.8825 18.6166 22.9746C18.639 23.1644 18.745 23.3011 18.7897 23.4825C18.8399 23.7001 18.7785 23.9261 18.812 24.1466C18.8455 24.367 18.8762 24.5819 18.9124 24.8023C19.024 25.4413 19.1747 26.164 19.4231 26.75C19.5291 26.9983 19.4984 27.1657 19.5458 27.4252C19.5989 27.7238 19.7105 27.9247 19.7077 28.2372C19.7049 28.7004 19.7077 29.1664 19.7077 29.6296C19.7077 30.3746 19.7746 31.1503 19.5737 31.8702C19.4593 32.2721 19.4565 32.6878 19.3868 33.0896C19.4119 33.1008 19.4342 33.112 19.4593 33.1231C19.5319 33.151 19.6016 33.1789 19.6714 33.2068C19.8305 33.2738 19.9867 33.3408 20.1402 33.4189C20.2071 33.4552 20.249 33.5193 20.2713 33.5891C20.6229 33.7007 20.994 33.7398 21.3372 33.8849C21.5465 33.9742 21.7279 34.0942 21.8618 34.2923C21.9623 34.4402 22.0041 34.6215 22.0125 34.8001C22.5203 34.7973 23.0589 34.7638 23.5751 34.8336C24.0271 34.6578 24.5154 34.6801 24.9284 34.9815C25.3916 35.3191 25.679 35.8381 25.8855 36.3795C25.8939 36.3934 25.8911 36.4101 25.8939 36.4269C25.9078 36.4297 25.9218 36.4269 25.9357 36.4297C26.3459 36.5859 26.77 36.5636 27.2221 36.5748C27.2556 36.5748 27.2918 36.5776 27.3281 36.5804C27.5151 36.5301 27.7076 36.5134 27.9001 36.5525C28.0285 36.5776 28.1485 36.6334 28.2601 36.7031C28.3857 36.7394 28.5112 36.7841 28.6312 36.8454C28.6982 36.8789 28.74 36.9431 28.7624 37.0157C28.9521 37.0519 29.1391 37.0659 29.3148 37.0352C29.3623 37.0101 29.4153 37.0017 29.4711 36.9989C29.5046 36.9822 29.5381 36.9654 29.5855 36.9347C29.6023 36.9236 29.6078 36.9208 29.6106 36.9208C29.6357 36.8985 29.6581 36.8733 29.6776 36.8482C29.7083 36.8175 29.6832 36.8482 29.7167 36.7952C29.7362 36.7645 29.7557 36.7338 29.7753 36.7031C29.8171 36.625 29.8534 36.5469 29.8897 36.466C29.9929 36.2288 30.0738 35.9776 30.1436 35.7237C30.1101 35.5814 30.0655 35.4391 30.0041 35.3052C29.9287 35.1405 29.9594 34.9424 30.1185 34.8476C30.1826 34.8057 30.2636 34.7973 30.3389 34.8113C30.3473 34.7555 30.3584 34.6997 30.3696 34.6439C30.2887 34.5797 30.2329 34.482 30.2301 34.3732C30.2301 33.6812 30.1631 32.9752 30.4142 32.3167C30.4087 32.2748 30.4115 32.233 30.4226 32.1911C30.4868 31.9874 30.5538 31.7837 30.6179 31.5801C30.551 31.527 30.5007 31.4461 30.5035 31.3289C30.5063 30.4109 30.7017 29.5096 31.0895 28.6865C31.1509 28.5497 31.3099 28.5023 31.4411 28.5386C31.4355 28.3795 31.4216 28.2205 31.4048 28.0614C31.4299 28.0558 31.4523 28.0531 31.4746 28.0335C31.5778 27.9442 31.642 27.6847 31.7006 27.5871C31.7843 27.4475 31.8485 27.361 31.9043 27.2132C31.9461 27.0988 31.9545 27.0485 32.0243 26.9397C32.0885 26.8392 32.1694 26.7611 32.2419 26.669C32.3089 26.5797 32.4317 26.3426 32.5377 26.2951C32.6856 26.2254 32.9563 26.2868 33.1181 26.284C33.2548 26.2812 33.4306 26.2337 33.5227 26.3677C33.5813 26.457 33.5143 26.6439 33.545 26.7527C33.6622 26.7807 33.7738 26.7332 33.891 26.7779C33.9803 26.8113 34.117 26.9453 34.1868 27.0206C34.2733 27.1127 34.3626 27.2327 34.4351 27.3331C34.477 27.3889 34.5133 27.4448 34.544 27.5034C34.5998 27.5117 34.6556 27.5285 34.7058 27.5564C34.8342 27.6875 34.8342 27.8382 34.9039 27.9972C35.0127 28.2484 35.1355 28.307 35.3029 28.4604C35.3225 28.6669 35.3504 28.8678 35.4257 29.0408C35.5708 29.3645 35.7968 29.6408 35.9977 29.9421C36.0954 30.09 36.1345 30.196 36.154 30.3663C36.1652 30.4946 36.1484 30.6481 36.154 30.796C36.0982 30.8685 36.0424 30.9411 35.9838 31.0136C36.1093 31.3568 36.2098 31.7112 36.3047 32.0684C36.3549 32.2553 36.4079 32.4395 36.4637 32.6209C36.5279 32.6292 36.5949 32.6543 36.6451 32.7101C36.7595 32.8301 36.7707 33.0506 36.6535 33.1733C36.7372 33.3882 36.8265 33.6003 36.9409 33.8012C36.9883 33.8291 37.033 33.8653 37.0581 33.9184C37.2366 34.309 37.2813 34.7136 37.2729 35.1405C37.2673 35.3303 37.2562 35.5172 37.2646 35.7042C37.2673 35.8465 37.2869 35.9665 37.3148 36.0948C37.4264 36.1702 37.4766 36.3236 37.4515 36.4632C37.4515 36.466 37.4487 36.4687 37.4487 36.4715C37.6692 36.7813 37.8868 37.0966 38.0514 37.4426C38.071 37.4844 38.0793 37.5263 38.0821 37.5709C38.2914 37.5179 38.4951 37.4649 38.696 37.384C38.71 37.3784 38.7267 37.3728 38.7406 37.3644C38.7462 37.3644 38.7518 37.3617 38.7602 37.3589C38.7937 37.3421 38.8271 37.3254 38.8606 37.3058C38.9332 37.2668 38.9974 37.2193 39.0643 37.1719C39.0811 37.158 39.095 37.144 39.1118 37.1301C39.1425 37.0994 39.1704 37.0687 39.1983 37.0352C39.2094 37.0212 39.2234 37.0073 39.2345 36.9933C39.2345 36.9905 39.2345 36.9933 39.2373 36.9877C39.2624 36.9487 39.2876 36.9096 39.3099 36.8706C39.3964 36.7115 39.5833 36.6696 39.734 36.7478C39.7508 36.6948 39.7759 36.6557 39.8093 36.6222C39.8261 36.4911 39.9182 36.3683 40.0409 36.3348C40.4874 36.2204 40.9367 36.2427 41.3831 36.3348C41.4473 36.3488 41.4947 36.3878 41.531 36.438C41.7821 36.2148 42.0667 36.0418 42.3904 35.9553C42.5578 35.9107 42.7169 36.0083 42.7755 36.1758C42.7922 36.1646 42.8146 36.1618 42.8341 36.1534C42.8062 36.1032 42.7811 36.0446 42.7894 35.9916C42.8173 35.7712 42.8704 35.5563 42.9987 35.3749C43.1187 35.2075 43.2666 35.0736 43.4424 34.9787C43.6126 34.8838 43.7912 34.8196 43.9725 34.7666C44.3548 34.1109 44.6869 33.4189 45.0915 32.7771C45.1445 32.6934 45.2143 32.6515 45.2896 32.6348C45.3035 32.5818 45.3203 32.5316 45.3314 32.4785C45.3482 32.3893 45.404 32.3251 45.471 32.2832C45.4347 32.1074 45.3984 31.9288 45.3733 31.7558C45.3035 31.2647 45.3649 30.7039 45.3649 30.2016C45.3649 29.85 45.3621 29.4957 45.3649 29.1413C45.3677 28.8399 45.2896 28.5748 45.2701 28.2791C45.2533 28.0307 45.2812 27.7796 45.2784 27.534C45.2673 26.9871 45.1305 26.4626 45.0915 25.924C45.058 25.4971 45.0329 24.9781 45.2031 24.5763C45.4347 24.0266 45.8253 23.5634 46.1127 23.0472C46.1825 22.9244 46.2913 22.8044 46.3388 22.6705C46.3611 22.6147 46.3499 22.5337 46.375 22.4779C46.4281 22.3552 46.5592 22.2966 46.6345 22.1933C46.8773 21.8641 47.0503 21.4762 47.3963 21.2362C47.6363 21.0716 48.1581 21.1051 48.4427 21.1414C48.6631 21.1693 48.7971 21.3785 48.9896 21.5097C49.1319 21.6073 49.2686 21.6604 49.4277 21.7413C49.5644 21.8083 49.7737 21.9422 49.9048 21.984C50.0499 22.0315 50.1336 22.0064 50.2676 22.0761C50.3904 22.1403 50.4685 22.2603 50.6024 22.2966C50.7531 22.3328 50.9903 22.2882 51.1465 22.2882L52.8124 22.2882C52.977 22.2882 53.3202 22.3579 53.4793 22.2687C53.7081 22.1403 53.8336 21.8724 53.8783 21.6325C53.9871 21.0353 53.9676 20.4047 53.8392 19.8132C53.7471 19.3918 53.5434 18.9537 53.4263 18.5547C53.3788 18.3901 53.3732 18.2171 53.3063 18.0524C53.2393 17.8934 53.1472 17.7539 53.0663 17.6004C52.7621 17.0089 52.4273 16.5177 52.0088 16.0155C51.8246 15.795 51.4925 15.4965 51.2358 15.3821C51.0628 15.3067 50.8424 15.3402 50.6471 15.3402C50.3318 15.3402 50.0583 15.2956 49.796 15.4602C49.503 15.6416 49.3691 16.0183 49.2407 16.342C49.1793 16.4954 49.1068 16.6154 49.0482 16.7661C48.9784 16.9391 49.0231 17.0786 48.984 17.2488C48.9505 17.3967 48.8891 17.4441 48.8891 17.6255C48.8891 17.8236 48.864 18.0245 48.7608 18.1947C48.5292 18.5742 48.2111 18.577 47.8288 18.577C47.3182 18.577 46.8494 18.6719 46.3388 18.6719C45.8505 18.6719 45.3342 18.5714 44.9045 18.8421C44.486 19.1044 44.0842 19.4141 43.727 19.7992C43.5986 19.9359 43.4759 20.0754 43.3531 20.215C43.2108 20.1731 43.0685 20.1368 42.9541 20.0866C42.7225 19.9806 42.4211 19.7043 42.2286 19.5341C41.8268 19.177 41.4863 18.7249 41.1041 18.3426C40.9171 18.1529 40.6465 17.9073 40.3953 17.7874C40.2279 17.7064 40.1637 17.6925 40.0158 17.5585C39.8707 17.4218 39.6391 17.3576 39.508 17.2265C39.2457 16.9614 39.0755 16.4564 38.9025 16.1243C38.763 15.8509 38.6653 15.5383 38.6011 15.237C38.5258 14.8854 38.3891 14.5533 38.3388 14.1962C38.3165 14.0427 38.3333 13.8892 38.297 13.7441C38.2774 13.6604 38.1854 13.5404 38.1603 13.4428C38.0598 13.0605 37.9538 12.7508 37.9566 12.349C37.9593 11.9025 37.9566 11.4588 37.9566 11.0124C37.9566 9.9828 37.9538 8.9503 37.9566 7.9179C37.9593 7.5635 37.8812 7.3821 37.7752 7.0417C37.7277 6.905 37.6915 6.7655 37.6664 6.6204C37.6496 6.5088 37.5938 6.4278 37.5045 6.3748C37.471 6.3107 37.3259 5.8921 37.3204 5.8949C37.3315 6.4278 37.3259 6.9636 37.3259 7.4966C37.3231 8.3727 37.0441 9.1875 37.0553 10.0609C37.0609 10.4236 36.9576 10.7585 36.9604 11.1212C36.966 11.6374 36.8851 12.1229 36.8711 12.6336C36.8516 13.2782 36.8739 13.9283 36.8739 14.5729C36.8739 15.2063 36.6925 16.0629 36.9995 16.6656C37.1139 16.8889 37.3036 17.0368 37.4878 17.1902C37.7473 17.4079 37.9677 17.6423 38.1742 17.9185C38.4449 18.2868 38.7713 18.6077 39.0281 18.9872C39.4187 19.5648 39.9349 20.1145 40.2363 20.7619C40.3088 20.9209 40.3507 20.999 40.4846 21.1218C40.6604 21.2837 40.7357 21.4343 40.8697 21.6269C41.0064 21.8194 41.2073 22.0482 41.4054 22.1682C41.4389 22.1877 41.4724 22.2045 41.5059 22.2212C41.3803 22.0929 41.2938 21.9729 41.3329 21.9171C41.4557 21.8724 41.637 22.118 41.81 22.3524C41.7096 22.3105 41.6063 22.2687 41.5059 22.2212C41.5896 22.3049 41.6845 22.3886 41.7793 22.4668C41.4947 22.9969 41.252 23.5494 41.0734 24.127C40.945 24.5456 40.8976 24.9753 40.7385 25.3827C40.5739 25.8124 40.387 26.2393 40.2753 26.6886C40.2474 26.8002 40.2279 26.9174 40.2084 27.0346C40.1693 26.9397 40.1274 26.8476 40.1163 26.7527C40.0856 26.496 40.1247 26.2031 40.1274 25.9463C40.1274 25.6645 40.1023 25.4497 40.0549 25.1762C40.0103 24.9139 40.1023 24.5986 40.0382 24.353C39.9433 23.9736 39.8205 23.555 39.6894 23.1504C39.6336 22.983 39.575 22.8435 39.4968 22.676C39.3406 22.33 39.2708 21.9394 39.056 21.6241C38.7685 21.1944 38.3026 21.0158 37.898 20.7116C37.6385 20.5163 37.298 20.3545 37.0804 20.1089C36.6144 19.5899 36.2349 19.0291 35.8275 18.4654C35.7271 18.3259 35.5987 18.2645 35.4815 18.1389C35.2918 17.9325 35.1188 17.659 34.8816 17.5C34.7449 17.4051 34.7421 17.4218 34.6835 17.2544C34.583 16.9698 34.6109 16.6852 34.6137 16.3782C34.6193 15.4686 34.6109 14.5561 34.6137 13.6465C34.6165 13.1749 34.5468 12.7452 34.53 12.2764C34.5188 11.9974 34.4379 11.7295 34.4323 11.4505C34.424 11.1547 34.4351 10.8617 34.4351 10.5687L34.4351 8.7522C34.4323 8.3169 34.4351 7.8816 34.4379 7.4463C34.4435 7.0445 34.3431 6.7487 34.2733 6.3665C34.1477 5.6968 33.7906 5.1778 33.5311 4.5834C33.4306 4.3546 33.2381 4.2207 33.1572 3.9389C33.146 4.2207 33.3664 4.6392 33.4501 4.9071C33.5897 5.3536 33.8129 5.7972 33.8771 6.2632C33.9078 6.4892 33.8994 6.7041 33.8938 6.9357C33.8687 8.3588 34.0026 9.8265 33.8854 11.2468C33.8241 11.9611 33.785 12.7312 33.6204 13.4316C33.5729 13.6381 33.545 13.7972 33.5339 14.0064C33.5227 14.1962 33.4474 14.3413 33.4362 14.531C33.4027 15.1142 33.3943 15.7588 33.5562 16.3113C33.6678 16.7019 33.6204 17.126 33.6204 17.5306C33.6204 17.8292 33.6985 18.0915 33.7124 18.3845C33.7459 19.0849 34.1198 19.7267 34.3626 20.388C34.4044 20.4996 34.4798 20.6028 34.5272 20.7033C34.6444 20.9377 34.77 21.1748 34.9011 21.4037C35.0909 21.7357 35.3476 21.998 35.5876 22.291C35.688 22.411 35.7494 22.5477 35.875 22.6481C35.9894 22.7374 36.1428 22.7793 36.2656 22.8574C36.6116 23.0806 36.9158 23.3932 37.1613 23.7364C37.1836 23.915 37.1948 24.0963 37.2143 24.2749C37.2618 24.7521 37.2143 25.3269 36.966 25.7454C36.8432 25.9491 36.6423 26.1138 36.5056 26.3147C36.38 26.4905 36.3214 26.6356 36.154 26.7723C36.0424 26.8616 35.9252 27.0011 35.794 27.0485C35.6741 27.0932 35.5066 27.1071 35.3811 27.1406C35.3811 27.1406 35.3811 27.1406 35.3783 27.1406C35.3671 26.9816 35.3448 26.8225 35.2527 26.6718C35.1383 26.4821 34.9207 26.2923 34.7337 26.1891C34.4686 26.0468 34.3598 25.938 34.1617 25.7343C34.0584 25.6254 34.0054 25.5278 33.9161 25.4245C33.8352 25.3297 33.8464 25.3436 33.7124 25.3325C33.5339 25.3129 33.4976 25.3129 33.3302 25.2376C33.2213 25.1902 32.9451 25.0227 32.8279 25.0367C32.7442 25.0451 32.5154 25.1929 32.4456 25.2515C32.3228 25.3492 32.334 25.4971 32.2447 25.6031C32.1638 25.698 32.0075 25.765 31.9071 25.8319C31.7034 25.9715 31.4913 26.097 31.2848 26.2254C31.3044 26.0719 31.3379 25.924 31.4048 25.7454C31.6308 25.1399 31.9043 24.487 31.9768 23.8368C32.0633 23.0472 31.9936 22.2129 31.9936 21.4176C31.9936 20.8009 31.988 20.1815 31.9936 19.5648C31.9964 19.4532 31.9964 19.3555 31.974 19.2467C31.9461 19.1128 31.9406 18.9314 31.9071 18.8086C31.8792 18.7054 31.8401 18.6998 31.7927 18.6105C31.6364 18.3008 31.7257 17.9073 31.6169 17.5892C31.4941 17.2377 31.296 16.9056 31.176 16.554C31.0923 16.2945 31.0086 16.0211 30.9026 15.7699C30.7937 15.5021 30.5538 15.3012 30.4087 15.0528C30.2943 14.8603 30.244 14.6231 30.1659 14.4082C30.032 14.0567 29.7725 13.6521 29.7334 13.2503C29.7083 13.0159 29.7753 12.815 29.6971 12.5834C29.6023 12.3099 29.5492 12.1509 29.5576 11.8607C29.5688 11.4058 29.4739 10.9677 29.4599 10.5157C29.4516 10.2339 29.4655 9.9493 29.4655 9.6674C29.4655 9.0787 29.4962 8.4788 29.4516 7.8928C29.4265 7.5524 29.3316 7.2231 29.3037 6.8827C29.2646 6.3944 29.3874 5.9172 29.4237 5.4373C29.4432 5.1722 29.4572 4.9071 29.4739 4.642C29.4767 4.5806 29.4516 3.9165 29.4488 3.9165C29.2814 4.0114 29.1753 4.2067 29.0665 4.3602C28.8851 4.6197 28.701 4.8764 28.5335 5.1471C28.4359 5.3061 28.3382 5.468 28.2629 5.641C28.1875 5.814 28.1317 5.9926 28.1178 6.1823C28.1038 6.3665 28.1373 6.5423 28.1792 6.7153L27.9029 6.7794C27.8974 7.0892 27.942 7.4156 27.9894 7.664C28.0564 8.0239 28.1764 8.3643 28.2015 8.7271C28.2071 8.7996 28.2043 8.8638 28.2015 8.928C28.1401 9.3159 28.0787 9.7065 27.995 10.0888C27.9225 10.4153 27.8834 10.7529 27.8388 11.0849C27.7969 11.4002 27.649 11.696 27.5486 12.0002C27.4062 12.4299 27.2974 12.8038 27.2946 13.2586C27.2946 13.5014 27.2388 13.8334 27.3449 14.0455C27.4537 14.2687 27.6127 14.5143 27.7495 14.7263C27.8025 14.8128 27.875 14.877 27.9308 14.9579C28.0201 15.0891 28.0201 15.1784 28.0843 15.3235C28.1959 15.569 28.4108 15.7867 28.5503 16.0211C28.6033 16.1104 28.5921 16.1355 28.6507 16.222C28.6898 16.2806 28.7512 16.3308 28.7958 16.3894C29.1949 16.9363 29.3121 17.6116 29.8283 18.0552C29.8924 18.1082 29.9762 18.1668 30.0627 18.231C30.1854 18.5324 30.3026 18.8337 30.3612 19.1435C30.4924 19.8383 30.2329 20.4745 29.8841 21.0325C29.5939 21.4929 29.2897 21.9422 28.9605 22.3719C28.5894 22.8491 28.1624 23.2285 27.928 23.7978C27.7243 24.2972 27.582 24.8107 27.4202 25.3185C27.2863 25.7315 27.0937 26.1249 26.9514 26.5379C26.8426 26.8588 26.8035 27.1685 26.7756 27.4866C26.2817 27.1546 25.7376 26.8839 25.2744 26.5128C25.1628 26.4263 25.054 26.3565 24.9424 26.2923C24.9452 26.217 24.948 26.1445 24.948 26.0719C24.948 25.6087 24.9256 25.1762 25.0289 24.7297C25.1656 24.1214 25.2772 23.5243 25.5172 22.9523C25.6511 22.6286 25.8102 22.33 25.9469 21.998C26.0473 21.7497 26.0948 21.5404 26.2315 21.2976C26.3738 21.0437 26.5385 20.7842 26.5747 20.4884C26.6138 20.1843 26.6556 19.8606 26.6724 19.5536C26.7003 19.0877 26.5385 18.6719 26.3906 18.2422C26.2594 17.8655 26.1394 17.4441 25.9832 17.0842C26.0557 17.2125 26.0641 17.5195 26.025 17.6646C25.9915 17.7818 25.9636 17.832 25.9441 17.9771C25.9218 18.1278 25.8743 18.2478 25.8269 18.3901C25.693 18.7779 25.4697 19.0988 25.2102 19.4253C24.7889 19.9582 24.2922 20.3154 23.7593 20.72C23.377 21.013 23.084 21.4037 22.805 21.7999C22.6459 21.4148 22.5176 21.0856 22.3976 20.6809C22.2748 20.2652 22.2274 19.8355 22.1241 19.4169C22.0767 19.23 22.0571 19.0821 22.0571 18.8756C22.0599 18.3119 22.0209 17.7957 22.1688 17.2544C22.2832 16.8442 22.3278 16.395 22.3976 15.9708C22.459 15.5969 22.4645 15.1644 22.4869 14.7961C22.498 14.5896 22.4813 14.372 22.5622 14.185C22.6682 13.945 22.6682 13.8195 22.6961 13.5544C22.7408 13.1275 22.8831 12.7173 22.9529 12.2932C23.0059 11.9695 23.0756 11.6458 23.1482 11.3277C23.257 10.8589 23.4356 10.4487 23.5835 9.9995C23.8876 9.0675 24.069 8.0183 23.9518 7.0278C23.9016 6.626 23.7844 6.0707 23.5891 5.7135C23.5277 5.5963 23.43 5.3591 23.3407 5.281C23.2765 5.4763 23.3212 5.7386 23.3212 5.9451C23.3212 6.4027 23.3268 6.8157 23.2403 7.2538C23.2012 7.4407 23.2682 7.6389 23.2375 7.823C23.2012 8.0267 23.1398 8.2527 23.0896 8.4564C23.031 8.6908 22.9584 8.9559 22.8998 9.1596C22.7882 9.5447 22.5873 9.8656 22.4199 10.2227C22.2971 10.4906 22.1604 10.7278 21.9651 10.9454C21.6637 11.2775 21.4656 11.7211 21.2591 12.1369C20.7066 13.2475 20.422 14.478 20.4304 15.7253C20.4332 16.035 20.4304 16.3447 20.4304 16.6517C20.4276 17.0368 20.422 17.4079 20.4778 17.7901C20.528 18.1529 20.6676 18.4766 20.7568 18.8226C20.768 18.8728 20.7736 18.9258 20.782 18.976C20.6815 18.8616 20.5783 18.75 20.4834 18.6412C20.2853 18.4152 20.1625 18.1473 19.9058 17.9994C19.4342 17.7288 18.9347 17.5139 18.4436 17.2907C18.0084 17.0954 18.2344 17.1595 17.9944 17.1484C17.8214 17.14 17.5982 17.1177 17.4614 17.2684C17.3722 17.3772 17.2857 18.0943 17.0624 17.8404L17.0289 17.7483C17.0178 17.7176 17.0038 17.6869 16.9843 17.659C16.9731 17.5892 16.9648 17.5167 16.9396 17.4637C16.9341 17.4497 16.9257 17.4386 16.9173 17.4246C16.5071 17.7567 16.0188 17.9352 15.4691 17.726C15.0311 17.5613 14.6683 17.2432 14.3502 16.8749C14.3 16.7521 14.233 16.6126 14.1102 16.5736C14.1102 16.5736 14.1047 16.5736 14.1047 16.5736C14.0572 16.5094 14.007 16.4508 13.9623 16.3866L13.8396 16.3866C13.5773 16.3866 13.2313 16.3252 12.9746 16.3838C12.7374 16.4396 12.5951 16.6573 12.4611 16.861C12.2798 17.1372 12.2156 17.366 12.0984 17.673C12.0286 17.8543 11.9561 17.9185 11.9366 18.0971C11.9226 18.2227 11.9561 18.3594 11.9393 18.4822C11.9142 18.6942 11.8473 18.8142 11.8473 19.0514C11.8501 19.3193 11.8473 19.5899 11.8473 19.8606C11.8473 20.1285 11.8333 20.4019 11.8445 20.6698C11.8528 20.8651 11.9282 20.9125 12.0091 21.0716" /><path d="M34.7477 38.5755C34.7142 38.7624 34.7198 38.9494 34.6863 39.1307C34.6751 39.1865 34.6612 39.2396 34.6444 39.2926C34.4184 39.513 34.1533 39.6916 33.8575 39.8283C33.3915 40.046 32.8307 40.1325 32.4261 39.7307C32.2754 39.5828 32.1805 39.393 32.1164 39.1893C32.0773 39.1558 32.041 39.114 32.0187 39.0582C31.9545 38.9047 31.9071 38.7512 31.8736 38.5894C31.7062 37.7523 31.7257 36.8147 31.9434 35.9888C32.1582 35.1657 32.7135 34.3425 33.6204 34.4374C33.6706 34.443 33.7152 34.4569 33.7599 34.4653C33.8296 34.5406 33.8966 34.616 33.9636 34.6885C33.9719 34.6969 33.9803 34.708 33.9887 34.7192C34.0082 34.7583 34.0277 34.7973 34.0473 34.8364C34.117 34.9675 34.2203 35.0708 34.3263 35.1684C34.463 35.3917 34.5747 35.6316 34.636 35.8744C34.6584 35.9665 34.6974 36.0418 34.7058 36.159C34.7198 36.332 34.7421 36.4966 34.7951 36.6641C34.8928 36.9543 34.8844 37.2026 34.8872 37.5179C34.8872 37.8974 34.8118 38.2043 34.7477 38.5755M60.67 26.7834C60.6533 26.0077 60.4942 25.1818 60.7705 24.4368C60.91 24.0573 61.1471 23.742 61.3983 23.435C61.3341 23.3429 61.3955 23.2062 61.5378 23.0723C61.5964 23.0165 61.6941 22.969 61.8001 22.93C61.814 22.9076 61.828 22.8853 61.8447 22.863C61.3062 22.8658 60.776 22.8295 60.2459 22.969C59.8189 23.0806 59.3418 23.3318 59.0069 23.622C58.8284 23.7754 58.6972 23.9708 58.4768 24.0043C57.7457 24.1159 56.8695 23.9484 56.2054 23.6694C55.8539 23.5215 55.5581 23.4267 55.1702 23.4322C54.8968 23.435 54.6205 23.4183 54.3443 23.4378C53.9118 23.4657 53.5825 23.6387 53.1835 23.8006C52.6561 24.0154 52.232 24.1717 51.7995 24.554C51.593 24.7353 51.3558 24.8581 51.141 25.0283C50.6722 25.4078 50.2034 25.8012 49.743 26.1975C49.1375 26.7165 48.6073 27.3471 48.0855 27.9582C47.7925 28.3014 47.5749 28.639 47.3768 29.0548C47.1535 29.5208 46.9331 29.9589 46.6708 30.4053C46.3778 30.902 46.202 31.4126 46.0486 31.9763C46.0039 32.1353 45.9649 32.2944 45.9258 32.4562C45.9481 32.5204 45.9565 32.5902 45.9453 32.6571C45.9453 32.6571 45.9425 32.6571 45.9425 32.6571C45.9453 32.7241 45.9258 32.7883 45.8923 32.8441C45.8477 33.0115 45.7919 33.1733 45.7221 33.3324C45.7054 33.4105 45.6858 33.4914 45.6691 33.5696C45.6663 33.5305 45.6663 33.4914 45.6635 33.4524C45.5937 33.5975 45.5212 33.7398 45.4403 33.8765C45.3482 34.0383 45.2533 34.2002 45.1724 34.3704C45.164 34.3927 45.1557 34.4123 45.1445 34.4346C45.1417 34.4402 45.1417 34.443 45.1389 34.4485C45.125 34.4904 45.111 34.5295 45.0971 34.5713C45.0719 34.6606 45.0524 34.7527 45.0413 34.8448C45.0273 34.9564 44.9408 35.0261 44.8459 35.0596C44.8097 35.1573 44.7343 35.241 44.6367 35.2689C44.5502 35.294 44.4664 35.3191 44.3772 35.3442C44.3548 35.3805 44.3353 35.4168 44.313 35.4558C43.9921 35.9609 43.5986 36.5273 43.0936 36.8789C43.1689 37.0212 43.1661 37.2166 42.9959 37.3282C42.1672 37.8918 41.2073 37.5123 40.3228 37.2668C40.1526 37.7411 39.7926 38.0537 39.3294 38.1988C38.9164 38.3243 38.4756 38.3271 38.0486 38.3271C38.004 38.3271 37.9621 38.316 37.9259 38.2992C37.9035 38.3048 37.884 38.3076 37.8617 38.316C37.725 38.3494 37.5966 38.2908 37.5213 38.1792C37.432 38.1457 37.3511 38.0983 37.2618 38.0481C37.2562 38.0425 37.2478 38.0397 37.2394 38.0369C37.2339 38.0341 37.2283 38.0313 37.2199 38.0313C37.2171 38.0313 37.2171 38.0285 37.2143 38.0285C37.2115 38.0285 37.206 38.0313 37.2032 38.0313C37.1864 38.0341 37.1585 38.0397 37.1474 38.0425C37.1334 38.0481 37.1083 38.0592 37.0888 38.0676C37.0832 38.0704 37.0776 38.0704 37.072 38.0704C37.0609 38.0788 37.0469 38.0844 37.0357 38.0899C37.0302 38.0927 37.0246 38.0927 37.0218 38.0955C37.0106 38.1234 37.0078 38.1485 36.9995 38.1764C36.952 38.3132 36.8432 38.408 36.7121 38.4164C36.6897 38.3271 36.6758 38.2378 36.6507 38.1485C36.5335 37.7411 36.3577 37.3477 36.1847 36.9571C36.1986 36.8817 36.2154 36.8064 36.2265 36.7282C36.2321 36.6976 36.2349 36.6669 36.2405 36.6362C36.2405 36.625 36.2489 36.5552 36.2489 36.5469C36.2572 36.4743 36.2656 36.399 36.2684 36.3264C36.2796 36.1841 36.2851 36.0418 36.2851 35.8995C36.2851 35.8939 36.2879 35.8911 36.2879 35.8856C36.0424 35.4782 35.8024 35.0624 35.5513 34.6578C35.5401 34.5908 35.5317 34.5267 35.5178 34.4625C35.4648 34.189 35.462 33.8988 35.4313 33.6198C35.4592 33.4635 35.4759 33.3073 35.4676 33.1566C35.4536 33.1622 35.4369 33.1706 35.4229 33.1761C35.395 33.1845 35.3671 33.1873 35.3364 33.1873C35.289 33.0534 35.2192 32.9278 35.155 32.8022C35.0239 32.5344 34.9039 32.2804 34.8816 31.9707C34.8649 31.7279 34.9207 31.4824 34.8704 31.2424C34.8035 30.9159 34.6137 30.6006 34.544 30.2686C34.4854 29.984 34.4742 29.7133 34.3737 29.4399C34.3152 29.2808 34.2426 29.1301 34.184 28.9711C34.0724 28.6669 33.9329 28.1368 33.5925 28.0056C33.3692 27.9219 32.973 27.9554 32.8112 28.134C32.7079 28.2512 32.6437 28.3879 32.5433 28.4967C32.4875 28.5553 32.4121 28.6055 32.3535 28.6641C32.1498 28.8734 32.0885 29.1524 31.974 29.4259C31.762 29.9254 31.5778 30.4528 31.5499 30.9941C31.5332 31.2731 31.4578 31.5242 31.4523 31.8089C31.4495 32.0042 31.3881 32.1409 31.3602 32.3251C31.3434 32.4283 31.3881 32.5399 31.3685 32.6432C31.3434 32.7771 31.2988 32.8608 31.2737 32.9975C31.176 33.5668 31.0449 34.1025 30.883 34.6634C30.7937 34.9759 30.7379 35.2382 30.671 35.5591C30.5984 35.9023 30.4059 36.212 30.3668 36.5608C30.3194 36.9598 30.3696 37.4007 30.3696 37.8025C30.3696 37.8695 30.3668 37.9393 30.364 38.009C29.8562 38.1513 29.3204 38.1262 28.8544 37.8053C28.807 37.7718 28.7735 37.73 28.7484 37.6853C28.5419 37.6519 28.3354 37.6044 28.1373 37.5514C27.8415 37.4733 27.5374 37.3644 27.236 37.3114C26.9319 37.4286 26.6389 37.5598 26.3041 37.5654C26.1255 37.5681 25.9943 37.4091 25.986 37.2305C25.986 37.1998 25.9943 37.1719 26.0027 37.144C25.9218 37.1245 25.8437 37.1077 25.7683 37.077C25.6818 37.0463 25.6148 36.9822 25.573 36.9068C25.5004 36.9096 25.4223 36.8817 25.3553 36.8008C25.107 36.5022 24.8531 36.2065 24.5601 35.9525C24.3871 35.8046 24.1388 35.6595 23.9462 35.5982C23.8458 35.5647 23.7397 35.5479 23.6337 35.5284C23.5528 35.5647 23.4635 35.5675 23.3854 35.534C23.324 35.6093 23.2347 35.6623 23.1426 35.6623C22.6878 35.6623 22.2385 35.6484 21.7921 35.5535C21.6525 35.5256 21.5772 35.3861 21.566 35.2466C21.4572 35.1936 21.3707 35.0791 21.3791 34.948C21.3819 34.9173 21.3903 34.8392 21.3819 34.7945C21.3819 34.7917 21.3819 34.7973 21.3791 34.789C21.3763 34.7806 21.3763 34.7694 21.3735 34.7583C21.3679 34.7387 21.3624 34.722 21.3568 34.7025C21.3568 34.6997 21.3568 34.7025 21.3568 34.6997C21.3456 34.6829 21.3344 34.6662 21.3261 34.6494C21.3233 34.6466 21.3261 34.6494 21.3205 34.6466C21.3065 34.6327 21.2926 34.616 21.2786 34.602C21.2647 34.5936 21.2535 34.5853 21.2396 34.5741C21.2061 34.5546 21.1698 34.535 21.1363 34.5183L21.1335 34.5183C21.1335 34.5183 21.1335 34.5183 21.1335 34.5183C21.114 34.5099 21.0973 34.5015 21.0777 34.496C21.0359 34.4792 20.994 34.4681 20.9522 34.4541C20.7736 34.4011 20.5894 34.3648 20.4108 34.323C20.023 34.2281 19.6156 34.0942 19.3338 33.7844C19.2082 33.7314 19.0826 33.6812 18.9627 33.6254C18.6473 33.4775 18.3544 33.2738 18.1283 32.9948C18.0335 32.8748 18.0167 32.7241 18.0865 32.5929C17.9609 32.4144 17.8326 32.2358 17.7182 32.0516C17.5173 31.7224 17.4531 31.368 17.2773 31.0331C17.2047 30.8853 17.0959 30.7709 16.9536 30.6955C16.8448 30.6648 16.7332 30.6537 16.6216 30.6648C16.4681 30.5393 16.3341 30.3942 16.2169 30.2295C16.0105 30.0119 15.8207 29.7775 15.6477 29.5319C15.3101 29.0576 15.1343 28.4911 14.8832 27.9638C14.6627 27.5061 14.512 27.1741 14.1409 26.8309C13.7587 26.51 13.3875 26.1779 13.0248 25.8319C12.8825 25.6645 12.7625 25.4803 12.6648 25.2767C12.2379 24.6656 11.6157 24.5205 10.9376 24.4507C10.0196 24.353 9.1602 24.4312 8.2421 24.473C7.804 24.4926 7.2906 24.5846 6.8637 24.6879C6.5623 24.7604 6.1773 24.8888 5.8954 25.0255C5.6276 25.1539 5.4825 25.3408 5.1672 25.3464C4.7012 25.352 4.3747 25.0562 3.9701 24.8693C3.7664 24.7772 3.5711 24.6907 3.3702 24.5819C3.0995 24.4312 2.8289 24.2805 2.5861 24.0963C2.4605 24.0015 2.2903 23.9233 2.2736 24.0991C2.2959 24.2107 2.3908 24.247 2.4549 24.3335C2.5359 24.4507 2.5024 24.5121 2.5582 24.6432C2.6168 24.7911 2.8205 24.9139 2.9098 25.0478C3.0158 25.2041 3.0465 25.3938 3.0856 25.5724C3.1163 25.7147 3.1693 25.8431 3.1804 25.991C3.2 26.217 3.1023 26.4067 3.0828 26.6216C3.066 26.7946 3.1051 26.976 3.0884 27.149C3.0716 27.3024 3.0074 27.428 2.9907 27.5787C2.9544 27.9359 3.0381 28.3126 2.9963 28.6669C2.9795 28.8288 2.9209 28.8567 2.8568 28.9962C2.7898 29.1413 2.8428 29.2808 2.7954 29.4287C2.7591 29.5515 2.6503 29.6547 2.5777 29.7552C2.4856 29.8919 2.4773 30.0035 2.4103 30.1458C2.3043 30.3718 2.1089 30.542 2.1954 30.8267C2.4243 30.6732 2.5721 30.3746 2.7675 30.1905C2.893 30.0705 2.9795 29.9533 3.1358 29.8891C3.3227 29.8082 3.5404 29.811 3.719 29.6938C3.8724 29.5905 3.9534 29.4036 4.1264 29.3366C4.2296 29.2975 4.305 29.2892 4.4054 29.2445C4.7961 29.0743 5.1309 28.7785 5.4797 28.533C5.7141 28.3684 5.8759 28.1647 6.0266 27.9024C6.2163 27.5731 6.4982 27.3889 6.8386 27.1825C7.0618 27.0485 7.2711 27.0374 7.5139 26.962C7.6645 26.9174 7.7315 26.856 7.8738 26.7834C8.1528 26.6411 8.4151 26.6662 8.7332 26.6662C9.1239 26.6662 9.4978 26.6523 9.8633 26.7416C9.9945 26.7723 10.1117 26.7444 10.2428 26.7583C10.4409 26.7779 10.6335 26.8951 10.826 26.9481C11.0939 27.0206 11.4622 27.2439 11.6715 27.4503C11.7719 27.5452 11.8082 27.668 11.8473 27.7991C11.9505 28.1479 12.0984 28.5218 12.1263 28.8902C12.1458 29.1245 12.1068 29.3534 12.1375 29.5905C12.1709 29.8277 12.2658 30.0454 12.3049 30.277C12.3523 30.556 12.2826 30.8713 12.2937 31.1559C12.3105 31.7642 12.5979 32.3446 12.7569 32.9222C12.8797 33.3603 12.8992 33.8179 13.0973 34.2309C13.1643 34.3704 13.2313 34.5015 13.2731 34.6578C13.3792 35.068 13.4517 35.4782 13.6108 35.8772C13.728 36.1674 13.7949 36.4883 13.9456 36.7589C14.0461 36.9403 14.1884 37.0854 14.2777 37.2779C14.3586 37.4509 14.4255 37.6435 14.5344 37.8053C14.7185 38.0788 14.9585 38.3048 15.1008 38.6062C15.1901 38.7987 15.2208 38.994 15.2961 39.1893C15.4133 39.4935 15.631 39.739 15.7761 40.0292C15.9519 40.3724 16.0691 40.7519 16.3481 41.017C16.6634 41.3156 17.1182 41.4384 17.4559 41.709C17.5982 41.8234 17.7098 41.9462 17.8549 42.0494C18.0949 42.2169 18.3516 42.3145 18.6278 42.4206C19.0771 42.5908 19.4956 42.5629 19.97 42.5601C20.0007 42.5601 20.0369 42.5601 20.0732 42.5712C20.2685 42.9284 20.4192 43.3274 20.5085 43.7264C20.6452 44.3431 20.6955 44.9933 20.7038 45.6267C20.7066 45.9615 20.6397 46.2991 20.4332 46.5642C20.2239 46.8377 19.9253 47.0023 19.6909 47.2423C19.4705 47.4683 19.2445 47.6804 19.0129 47.8813C18.7422 48.1185 18.4409 48.3863 18.1925 48.6486C18.0725 48.7742 17.9972 48.9221 17.8856 49.056C17.7182 49.2485 17.5256 49.3797 17.4224 49.6224C17.3415 49.8122 17.3247 50.0187 17.2326 50.2056C17.1182 50.4344 16.9313 50.6214 16.8364 50.8558C16.6969 51.1934 16.5657 51.6148 16.4765 51.9775C16.39 52.3347 16.4569 52.8007 16.4569 53.169C16.4569 53.6936 16.4709 54.0954 16.6634 54.5781C16.8197 54.9688 17.0847 55.2617 17.3108 55.6133C17.4419 55.8114 17.4977 55.9482 17.6986 56.0793C17.7963 56.1407 17.8939 56.1826 17.986 56.2551C18.5218 56.6653 18.4548 57.1927 18.4464 57.7926C18.4604 57.6977 18.4995 57.6084 18.5162 57.5024C18.5441 57.3154 18.5329 57.1703 18.5748 56.9806C18.6808 56.4755 18.7227 56.0235 18.7171 55.5129C18.7143 55.0385 18.6306 54.539 18.5357 54.0758C18.4548 53.6936 18.3488 53.3252 18.3544 52.929C18.3571 52.65 18.3209 52.3542 18.3488 52.0807C18.3878 51.7068 18.5748 51.6455 18.8259 51.4669C18.9515 51.3748 19.0324 51.2241 19.1636 51.1404C19.278 51.0706 19.4314 51.026 19.5458 50.959C19.8388 50.7944 20.2351 50.6688 20.4471 50.3898C20.4415 50.5209 20.4108 50.6074 20.3718 50.7246C20.316 50.8948 20.2518 51.0623 20.182 51.2269C20.1179 51.3441 20.0537 51.4641 19.9895 51.5841C19.9337 51.8352 19.9476 52.0975 19.889 52.3598C19.8277 52.636 19.7942 52.8648 19.7998 53.1439C19.8109 53.8247 19.9755 54.4079 20.2267 55.0274C20.3355 55.2924 20.5057 55.5296 20.6117 55.7835C20.7262 56.057 20.8406 56.3416 20.9661 56.6067C21.167 57.0392 21.407 57.4354 21.4265 57.9182C21.4405 58.2139 21.513 58.7469 21.3233 58.9952C21.4182 58.7887 21.6888 58.6464 21.8423 58.4958C21.979 58.359 22.0711 58.2474 22.1492 58.0716C22.219 57.9126 22.3278 57.7758 22.378 57.6056C22.459 57.3322 22.4171 57.0336 22.4199 56.749C22.4199 56.3639 22.3222 56.1519 22.1688 55.8087C22.0404 55.524 21.8256 55.2841 21.7223 55.0106C21.5912 54.673 21.2926 54.1484 21.3317 53.7856C21.3484 53.635 21.3149 53.6294 21.4656 53.5959C21.6972 53.5401 21.6944 53.6182 21.9344 53.4843C22.1409 53.3699 22.3111 53.3225 22.4785 53.169C22.6794 52.9848 22.8887 52.7951 23.0924 52.6081C23.7425 52.0054 24.295 51.305 24.7973 50.5656C24.9452 50.3507 25.1516 50.1638 25.3107 49.9517C25.4363 49.9405 25.5646 49.9322 25.6958 49.9154C26.1618 49.8624 26.6222 49.7787 26.957 49.4327C26.9458 49.4857 26.9319 49.5332 26.9179 49.5694C26.8621 49.7257 26.7394 49.8764 26.6501 50.0187C26.4854 50.281 26.3654 50.5963 26.1924 50.8474C26.0613 51.0427 25.8855 51.2046 25.746 51.3971C25.5451 51.6845 25.386 51.9719 25.1991 52.2677C24.8949 52.7588 24.6466 53.2555 24.5908 53.861C24.5489 54.3465 24.6884 54.7204 24.8615 55.1725C25.1405 55.8924 25.4139 56.629 25.4949 57.4103C25.5339 57.7675 25.5618 58.3869 25.4139 58.7106C25.2967 58.9645 25.0875 59.2771 24.92 59.4891C24.8531 59.5756 24.7275 59.6482 24.6884 59.7486C24.7945 59.7096 24.8559 59.637 24.9452 59.5645C25.2047 59.3524 25.4837 59.1766 25.7683 59.0036C25.9413 58.8976 26.1004 58.772 26.2594 58.6464C26.5998 58.3758 26.7896 57.9991 26.8649 57.5777C26.9263 57.2429 27.0435 56.9164 27.1021 56.5844C27.1635 56.2384 27.1467 55.8924 27.2277 55.5464C27.3477 55.0246 27.3114 54.4693 27.476 53.9698C27.5681 53.6908 27.6072 53.3922 27.702 53.1188C27.8834 52.5942 28.3885 52.3458 28.7289 51.9329C28.9354 51.6845 29.1251 51.4055 29.2869 51.1209C29.393 50.9367 29.5241 50.8363 29.6078 50.6493C29.7027 50.4344 29.8339 50.2698 29.8952 50.0577C29.8952 50.0577 29.898 50.0605 29.898 50.0605C29.9315 50.0829 29.9706 50.108 30.0041 50.1303C29.9622 50.4986 29.9064 50.8642 29.8227 51.2353C29.7111 51.718 29.6664 52.1896 29.4851 52.6556C29.3986 52.8816 29.3539 53.0853 29.3121 53.3225C29.2228 53.8247 29.0749 54.3047 29.0274 54.8153C28.9744 55.3594 29.0051 55.7919 29.1977 56.297C29.34 56.6765 29.5074 57.0225 29.6915 57.3796C29.8785 57.7396 30.0738 58.1609 30.1715 58.5599C30.2412 58.8613 30.0403 59.5617 30.2496 59.7877C30.6626 59.0957 30.9472 58.4511 30.7407 57.6419C30.5872 57.0504 30.2831 56.4476 30.2747 55.8338C30.2636 55.1836 30.2273 54.5976 30.5147 53.9977C30.9221 53.1522 31.4634 52.424 31.7899 51.531C32.0131 50.9255 32.1052 50.3591 32.1498 49.7648C32.3089 50.1191 32.4372 50.493 32.627 50.8195C32.8 51.1125 32.8753 51.4139 33.1041 51.6761C33.2213 51.8129 33.3692 51.9468 33.4948 52.0752C33.5506 52.131 33.6036 52.1924 33.6594 52.251C33.679 52.4072 33.7013 52.5635 33.732 52.7142C33.771 52.9011 33.7794 53.1132 33.8213 53.3113C33.8603 53.5066 33.9608 53.6964 34.0054 53.8945C34.0836 54.2461 34.1226 54.6255 34.2035 54.9911C34.184 55.2255 34.1728 55.4654 34.078 55.6691C33.9943 55.8477 33.8631 55.9872 33.7961 56.1742C33.7515 56.297 33.7599 56.4309 33.6957 56.562C33.5255 56.9136 33.3357 57.1285 33.1069 57.4187C32.8139 57.787 32.4679 58.4427 32.5572 58.9143C32.5823 59.0622 32.6995 59.2826 32.7833 59.4305C32.8893 59.6147 33.0846 59.8268 33.1014 60.0639C33.2241 60.0416 33.2492 59.5087 33.2744 59.3663C33.3413 58.9813 33.6427 58.6632 33.8213 58.3367C33.9747 58.0577 34.1561 57.7647 34.3626 57.5275C34.7142 57.1201 34.876 56.8048 35.0239 56.2635C35.1299 55.8812 35.2304 55.4068 35.2527 55.005C35.275 54.5921 35.3197 54.0228 35.2109 53.6294C35.155 53.4369 35.0685 53.236 34.9988 53.0462C34.9234 52.8397 34.77 52.6528 34.7225 52.4379C34.7142 52.41 34.7114 52.3821 34.7058 52.3514L34.7058 51.5813C34.7058 51.4948 34.7086 51.4083 34.7114 51.319C34.8565 51.3553 34.9262 51.5366 35.0406 51.6929C35.1969 51.905 35.3671 52.1086 35.529 52.3151C35.6629 52.4881 35.8164 52.6193 36.0005 52.7365C36.1652 52.8397 36.3158 52.8537 36.5139 52.9262C36.7483 53.0099 36.9548 53.1746 37.1669 53.3085C37.312 53.4034 37.5575 53.568 37.6664 53.7075C37.7277 53.7829 37.7166 53.928 37.7724 54.0089C37.8338 54.0982 37.9482 54.1261 38.0012 54.2154C38.11 54.4135 38.0486 54.7539 38.0486 54.9688C38.0486 55.2366 38.0877 55.5491 38.0319 55.8114C38.004 55.9565 37.9147 56.0737 37.8756 56.2105C37.8282 56.3807 37.8282 56.5676 37.7836 56.7434C37.711 57.0057 37.6022 57.1843 37.5966 57.455C37.591 57.7368 37.5966 58.0186 37.5966 58.2976C37.5966 58.546 37.5715 58.7329 37.7026 58.9562C37.7947 59.1096 38.0486 59.2771 38.124 59.4249C38.1882 59.5561 38.1128 59.651 38.2384 59.7598C38.3137 59.824 38.4616 59.8295 38.5481 59.877C38.6458 59.93 38.7406 60.0165 38.8299 60.0835C38.6179 59.8658 38.509 59.4249 38.4951 59.1292C38.4756 58.7413 38.4672 58.3758 38.5983 58.013C38.7323 57.6503 38.9192 57.2736 39.0783 56.9192C39.2178 56.6067 39.3964 56.297 39.5415 55.9817C39.6391 55.7724 39.7898 55.6357 39.9042 55.4459C40.013 55.259 40.0493 54.9995 40.1274 54.7985C40.2112 54.5837 40.306 54.4051 40.3144 54.1707C40.3256 53.8498 40.306 53.5206 40.306 53.1997C40.306 52.7895 40.3925 52.2482 40.3032 51.8464C40.1944 51.3664 39.9126 51.0846 39.6698 50.6912C39.4745 50.3703 39.2429 50.0382 39.0839 49.6978C39.0169 49.5527 38.9611 49.4215 38.8997 49.2932C38.9722 49.4048 39.0448 49.5164 39.1201 49.628C39.5582 50.281 40.1302 50.8418 40.6074 51.4669C40.7971 51.7152 40.9673 52.0249 41.1962 52.2314C41.3385 52.3598 41.4891 52.4044 41.4975 52.6304C41.7207 52.636 41.9607 53.0211 42.117 53.1746C42.2704 53.3225 42.3709 53.501 42.4965 53.6685C42.6806 53.9084 42.6555 54.1121 42.6555 54.4079C42.6555 54.8767 42.6639 55.3148 42.5662 55.7724C42.5104 56.0263 42.5271 56.3025 42.4713 56.5481C42.4462 56.6597 42.3876 56.7462 42.3402 56.8522C42.2621 57.0308 42.2453 57.2206 42.1811 57.3992C42.0835 57.6726 41.9272 57.9516 41.7989 58.2139C41.6733 58.4706 41.5812 58.6715 41.7765 58.9059C41.9468 59.1096 42.1253 59.2798 42.3737 59.3719C42.4518 59.0538 42.3597 58.8473 42.5411 58.5488C42.7699 58.1665 43.155 57.854 43.4089 57.4689C43.5261 57.2875 43.6405 57.1787 43.7828 57.0225C44.0814 56.696 44.1539 56.1016 44.2851 55.6803C44.5055 54.9799 44.7399 54.3744 44.7343 53.6238C44.7315 53.3476 44.7371 53.0741 44.7343 52.7979C44.7315 52.4993 44.6227 52.237 44.5697 51.9412C44.4748 51.4139 44.2209 51.0232 43.9865 50.56C43.8302 50.2475 43.741 49.974 43.5484 49.6727C43.3587 49.3797 43.0992 49.1118 43.0043 48.7826C42.9401 48.5649 42.8536 48.4059 42.7671 48.2022C42.7029 48.0487 42.7141 47.7864 42.583 47.6887C43.367 47.6134 44.1372 48.2747 44.6199 48.8607C44.9296 49.2374 45.2505 49.5387 45.4598 49.9852C45.5128 50.0996 45.591 50.2224 45.6412 50.3396C45.7779 50.6493 45.7333 51.012 45.7305 51.3441C45.7249 51.7626 45.7863 52.2203 45.7416 52.6332C45.7081 52.9318 45.4849 53.1774 45.3984 53.4564C45.3119 53.7382 45.2561 54.0284 45.1417 54.3047C45.0692 54.4693 44.9464 54.6646 44.9101 54.832C44.8403 55.1445 44.9966 55.3231 45.1222 55.5771C45.1919 55.7222 45.2533 55.9231 45.3454 56.0486C45.4068 55.9733 45.3594 55.8226 45.3594 55.7305C45.3594 55.485 45.39 55.2673 45.4626 55.0357C45.5575 54.7399 45.6914 54.4944 45.8867 54.26C46.2272 53.8498 46.8382 53.5987 47.0922 53.1243C47.2094 52.9011 47.3796 52.6779 47.48 52.4519C47.6446 52.1003 47.7116 51.6566 47.8121 51.2799C47.9181 50.8753 47.946 50.4651 47.8483 50.0522C47.7451 49.6252 47.6056 49.1174 47.3851 48.7435C46.8801 47.8924 46.2355 47.1642 45.5184 46.514C45.0636 46.1038 44.7176 45.635 44.2934 45.1997C44.0256 44.9179 43.9809 44.7672 43.8581 44.3738C43.8554 44.3599 43.8498 44.3431 43.8442 44.3292C44.2404 44.0836 44.606 43.7906 44.8766 43.3888C45.2059 42.8921 45.2143 42.2169 45.8114 42.016C46.0904 41.9211 46.3276 41.7927 46.5815 41.6421C46.7992 41.5165 47.0447 41.4216 47.2317 41.2458C47.3796 41.1063 47.3935 41.017 47.4912 40.8496C47.5665 40.7212 47.6642 40.6626 47.6977 40.4896C47.7591 40.1715 47.7897 40.099 48.0353 39.8144C48.1106 39.7251 48.1748 39.6916 48.2613 39.6274C48.412 39.5214 48.4008 39.5158 48.532 39.3372C48.6575 39.1642 48.8612 38.9828 49.0315 38.8796C49.1068 38.835 49.4137 38.7568 49.4277 38.6815C49.3216 38.5503 49.1654 38.5448 49.0147 38.5057C48.9645 38.4945 48.9115 38.489 48.8612 38.4806C49.0761 38.4583 49.3105 38.3466 49.4333 38.235C49.6314 38.0565 49.6146 37.8639 49.6118 37.61C49.6118 37.5263 49.5895 37.4091 49.6063 37.3254C49.6314 37.1914 49.7318 37.1133 49.7904 36.9989C49.9746 36.6334 50.0723 36.1869 50.209 35.8019C50.488 35.0038 50.8368 34.1779 50.9484 33.3268C51.007 32.8859 50.9373 32.4423 50.9624 31.9986C50.9735 31.834 51.0349 31.6861 51.06 31.527C51.1103 31.2061 51.1214 30.8601 51.141 30.5365C51.1605 30.2435 51.1214 29.9449 51.1521 29.6547C51.1884 29.2836 51.3195 28.8929 51.42 28.5358C51.526 28.1563 51.6488 27.7126 51.9139 27.428C51.992 27.3471 52.0646 27.269 52.1511 27.202C52.3269 27.0653 52.4022 26.9704 52.5361 26.7723C52.6394 26.6216 52.7426 26.5016 52.8766 26.3816C52.9937 26.2756 53.0942 26.1165 53.2114 26.0217C53.3621 25.9017 53.6216 25.9101 53.789 25.818C54.0736 25.6645 54.2996 25.458 54.6233 25.3771C55.067 25.2655 55.4883 25.5194 55.932 25.525C56.0631 25.525 56.2194 25.4915 56.3477 25.5138C56.5487 25.5529 56.7635 25.8319 56.9365 25.977C57.1346 26.1417 57.2909 26.39 57.4527 26.5993C57.7262 26.9509 58.0387 27.3052 58.2815 27.6791C58.6163 28.1926 59.1855 28.5553 59.6236 28.9794C59.7603 29.1134 59.9194 29.2892 60.0896 29.3757C60.2766 29.4705 60.5305 29.4678 60.7342 29.5012C60.9909 29.5403 61.256 29.5431 61.5211 29.5375C61.2336 29.2529 60.9965 28.9181 60.8402 28.5246C60.6198 27.9693 60.6002 27.3722 60.67 26.7834" /><path d="M21.3791 34.7722C21.3819 34.7778 21.3791 34.7862 21.3791 34.7917C21.3847 34.8029 21.3819 34.789 21.3791 34.7722" /><path d="M2.1815 26.8727C2.1843 26.6272 2.0894 26.496 2.0894 26.2477C2.095 25.7984 2.2122 25.1678 1.9555 24.8107C1.7518 24.5261 1.6764 24.1828 1.2774 24.1912C1.1881 24.2917 0.9258 24.3168 0.7305 24.5484C0.5854 24.7158 0.524 25.0144 0.4682 25.2348C0.3901 25.5334 0.2534 25.8403 0.2031 26.1417C0.1836 26.2533 0.2031 26.3593 0.1752 26.4709C0.125 26.6942 0.019 26.8839 0.0078 27.1294C-0.0089 27.5592 0.0134 27.9972 0.0134 28.427C0.0134 28.5442 -0.0145 28.6976 0.0106 28.8092C0.0273 28.8874 0.0804 28.9376 0.0971 29.0046C0.1417 29.2194 0.0859 29.412 0.1948 29.6212C0.3678 29.9505 0.8086 30.4472 1.1937 30.2128C1.3695 30.104 1.5676 29.9031 1.6625 29.7161C1.7518 29.5459 1.7518 29.3534 1.8215 29.1887C1.9945 28.7758 2.162 28.254 2.1843 27.7852C2.1982 27.4838 2.1787 27.1741 2.1815 26.8727" /><path d="M63.8454 25.7538C63.7812 25.525 63.6417 25.3213 63.6082 25.0869C63.5887 24.9641 63.5831 24.886 63.5441 24.7632C63.4743 24.5316 63.4269 24.3419 63.2957 24.1466C63.1478 23.915 63.0362 23.6415 62.8911 23.4267C62.8576 23.3764 62.6763 23.1951 62.5535 23.2146C62.5451 23.2397 62.5367 23.2648 62.5284 23.2871C62.4614 23.2537 62.3944 23.2313 62.3303 23.2174C62.2465 23.329 62.1573 23.4378 62.068 23.5438C62.0735 23.6108 62.0819 23.675 62.0791 23.7168C62.0652 23.9122 62.0177 24.1689 61.9675 24.3614C61.8671 24.7549 61.7136 25.126 61.6466 25.5278C61.6243 25.6617 61.6299 25.7873 61.6578 25.9045C61.6327 25.991 61.602 26.0775 61.5797 26.1668C61.4764 26.563 61.4066 26.9816 61.415 27.3917C61.4429 27.428 61.4708 27.4699 61.4932 27.5201C61.5685 27.6708 61.5824 27.8382 61.6689 27.9972C61.7778 28.1981 61.881 28.4214 62.0038 28.6111C62.0875 28.7367 62.1824 28.946 62.28 29.0548C62.3609 29.1441 62.4949 29.1497 62.5702 29.2334C62.6065 29.2724 62.6121 29.3394 62.6372 29.384C62.6623 29.4036 62.6902 29.4175 62.7181 29.4343C62.7795 29.4315 62.8381 29.3394 62.8855 29.3059C63.0697 29.1859 63.2232 29.1357 63.3627 28.9543C64.0296 28.0782 64.1412 26.8281 63.8454 25.7538" /></g></svg>
