<?xml version="1.0" encoding="UTF-8"?>
<svg xmlns="http://www.w3.org/2000/svg" width="64" height="64" viewBox="0 0 64 64"><title>WOTOG-Children-of-Paradise</title><g fill="#000000" id="WOTOG-Children-of-Paradise"><path d="M45.314 31.2235C44.8688 32.2325 44.2374 33.1903 43.5792 33.8513C43.5009 33.9323 43.4307 34.0159 43.3633 34.1022C43.2688 34.2236 43.1852 34.3289 43.0746 34.4044C42.9829 34.4665 42.8884 34.5231 42.7967 34.5797C42.6753 34.6499 42.5539 34.7228 42.4351 34.8064C42.1438 35.0195 41.8335 35.1463 41.507 35.2813C41.3775 35.3352 41.2481 35.3892 41.1158 35.4485C40.3388 35.7993 39.5186 35.9962 38.7928 35.9881C38.6633 35.9881 38.5069 35.9962 38.3558 36.0043C38.1022 36.0232 37.8377 36.0367 37.63 35.9989C37.4546 35.9638 37.2522 35.899 37.058 35.8344L36.8341 35.7642C36.486 35.659 35.9869 35.3433 35.674 35.0276C35.5498 34.9063 35.423 34.7336 35.3232 34.5581C35.2747 34.4746 35.2099 34.2911 35.1802 34.1696C35.1694 34.1292 35.1721 34.0752 35.1748 34.0105C35.1802 33.9269 35.1856 33.827 35.1613 33.7218C35.1424 33.6327 35.1073 33.5708 35.0831 33.5222C35.0588 33.4763 35.0507 33.4574 35.0453 33.425C35.0372 33.3441 35.0426 33.2604 35.0453 33.1795C35.048 33.1175 35.0507 33.0581 35.0507 33.0015L35.048 32.9178C35.048 32.8152 35.0453 32.7262 35.075 32.6157C35.1127 32.478 35.137 32.3944 35.1505 32.3674C35.2531 32.1867 35.6497 31.8952 35.9491 31.879C35.9572 31.879 35.9653 31.879 35.9707 31.879C35.995 31.879 36.0139 31.8817 36.0328 31.8844C35.8682 32.2621 35.7198 32.6588 35.7711 33.1444C35.8413 33.8135 36.6614 34.1049 37.0553 34.2479C37.1471 34.2803 37.2279 34.3262 37.3089 34.372C37.4357 34.4422 37.5788 34.5231 37.7541 34.5635C38.086 34.6445 38.4259 34.6958 38.7173 34.7093C39.559 34.7551 40.2039 34.6526 40.8191 34.3774C40.908 34.337 41.0025 34.3019 41.0969 34.2668C41.275 34.202 41.4558 34.1346 41.6285 34.0348C41.8092 33.9296 41.9738 33.7892 42.133 33.657L42.2462 33.5627C42.5377 33.3198 42.624 32.9718 42.7022 32.6642C42.7373 32.5266 42.7697 32.3998 42.8155 32.2999L42.8641 32.1867C42.9262 32.0517 42.9694 31.9546 43.053 31.8628C43.1259 31.7792 43.231 31.7145 43.339 31.6444C43.4064 31.5985 43.4766 31.5553 43.5414 31.5067C43.6546 31.4231 43.7599 31.3367 43.8624 31.2532C43.9757 31.1614 44.089 31.0697 44.2077 30.9806C44.3588 30.87 44.8769 30.4707 45.152 30.0147C45.2168 29.9042 45.26 29.7908 45.3005 29.6829C45.3301 29.6019 45.3571 29.5183 45.4003 29.4455C45.4731 29.3214 45.5243 29.1945 45.5756 29.0677C45.6026 29.0003 45.6296 28.9356 45.6593 28.8681C45.7915 28.5821 45.832 28.3986 45.8751 28.0965C45.902 27.9076 45.956 27.7052 46.01 27.511L46.0262 27.4516C46.0316 27.4354 46.037 27.4192 46.0397 27.4058C46.0397 27.8671 46.0424 28.3285 46.0451 28.7871C46.0505 29.5533 45.6782 30.3979 45.349 31.1425ZM24.6148 52.2436C24.5446 52.2194 24.48 52.2113 24.426 52.2032C24.3936 52.2005 24.3558 52.1951 24.3423 52.187C24.3153 52.1762 24.283 52.1492 24.2452 52.1195C24.1966 52.0791 24.1453 52.0413 24.0887 52.0089C23.9835 51.9495 23.8729 51.8928 23.7649 51.8362C23.6057 51.7553 23.4466 51.6717 23.2928 51.5718C23.2118 51.5205 23.1229 51.4774 23.0365 51.4369C22.9771 51.4099 22.9205 51.3829 22.8665 51.3505C22.7667 51.2886 22.6831 51.2049 22.5859 51.1105L22.4969 51.0214C22.3296 50.8569 22.2378 50.6788 22.1192 50.4494L22.0409 50.2984C21.9438 50.1149 21.8142 49.9584 21.6875 49.8046C21.62 49.7237 21.5526 49.6427 21.4905 49.5564C21.1317 49.0518 20.8161 48.4556 20.6083 47.8782C20.5732 47.7838 20.5381 47.692 20.503 47.6004C20.4248 47.4034 20.352 47.2173 20.3034 47.0122L20.2549 46.8071C20.1793 46.4915 20.101 46.1623 19.9958 45.8467C19.7638 45.1398 19.6451 44.4464 19.6424 43.7827C19.6424 43.5911 19.6397 43.3996 19.6397 43.2107C19.6343 42.8491 19.6316 42.493 19.6397 42.1342C19.6478 41.9102 19.7017 41.6917 19.7584 41.4866C19.8151 41.2844 19.8313 41.1143 19.8448 40.947C19.8529 40.8661 19.861 40.7825 19.8745 40.6908C19.9041 40.4641 19.9473 40.2051 19.9958 39.9811C19.9985 39.9703 20.0093 39.9488 20.0201 39.9273C20.0444 39.876 20.0794 39.8085 20.0929 39.7195C20.1091 39.6115 20.1037 39.5171 20.101 39.4308C20.0956 39.3553 20.0929 39.2878 20.1064 39.2257C20.1712 38.9506 20.209 38.6672 20.2414 38.3975C20.263 38.2409 20.2818 38.0845 20.3061 37.9307C20.3331 37.7607 20.3601 37.5908 20.3844 37.4235C20.4437 37.0242 20.4976 36.6465 20.5894 36.2553C20.6541 35.9827 20.673 35.7021 20.6946 35.4323C20.7135 35.1868 20.7297 34.9574 20.7756 34.7363C20.7945 34.6526 20.8269 34.577 20.8592 34.4989C20.9077 34.3828 20.9617 34.2506 20.9833 34.0995C20.9941 34.024 20.9995 33.9431 21.0049 33.8648C21.0157 33.7137 21.0238 33.5708 21.075 33.452C21.129 33.3252 21.2208 33.1849 21.3394 33.0527L21.45 32.9232C21.6012 32.7424 21.6497 32.6911 21.7496 32.6911C21.7685 32.6911 21.7873 32.6938 21.8115 32.6965L22.7073 32.6992C22.7882 32.6965 22.8611 32.6938 22.9394 32.6911C23.0608 32.6857 23.1821 32.6777 23.2955 32.6911C23.3414 32.6965 23.3926 32.7154 23.4493 32.7397C23.5249 32.7667 23.6111 32.7991 23.711 32.8152C24.3774 32.9043 24.828 33.0959 24.979 33.3522C25.1112 33.5762 25.1544 33.7056 25.1625 33.9053C25.1679 34.0779 25.1868 34.1804 25.2785 34.3639C25.3109 34.4179 25.3487 34.4665 25.3946 34.5096L25.3703 34.6013L25.4134 34.685C25.5375 34.9279 25.8317 35.2084 26.1527 35.2705C26.2283 35.2867 26.2984 35.284 26.3577 35.284C26.3955 35.2813 26.4359 35.2813 26.4602 35.2867C26.4872 35.2921 26.5142 35.3029 26.5439 35.3164C26.5709 35.3271 26.5979 35.3379 26.6302 35.3487C26.6356 35.4485 26.6302 35.5618 26.6248 35.6698C26.6195 35.7507 26.6168 35.8317 26.6168 35.9071C26.6168 35.9935 26.6222 36.0853 26.6275 36.1824C26.6383 36.3469 26.6491 36.5169 26.6248 36.6438C26.6114 36.7247 26.5925 36.7921 26.5736 36.8569C26.525 37.035 26.4656 37.24 26.5385 37.5287C26.6168 37.8551 26.7921 38.1007 26.9513 38.3003C27.2777 38.6996 27.6204 38.7752 27.9819 38.8534C28.0683 38.8723 28.16 38.8912 28.2544 38.9182C28.902 39.0881 29.3282 38.7725 29.706 38.4892C29.7464 38.4568 29.7896 38.4271 29.8328 38.3948C29.8841 38.4703 29.938 38.5621 29.9757 38.6294C30.0567 38.7671 30.1295 38.875 30.2213 39.0018L30.2618 39.0638C30.5558 39.4848 30.7474 39.8139 30.8822 40.1349C30.9821 40.3751 31.0981 40.6044 31.2115 40.8338C31.4758 41.3544 31.7241 41.8482 31.7511 42.3932C31.7565 42.5335 31.7861 42.6522 31.8131 42.7574C31.84 42.8626 31.8643 42.9517 31.8643 43.0542C31.8643 43.2484 31.9102 43.351 31.9453 43.4319C31.9588 43.4643 31.975 43.4967 31.9885 43.5507C31.9912 43.5642 31.9831 43.6045 31.9804 43.6342C31.9696 43.7017 31.9588 43.7854 31.9723 43.8744C31.9912 43.9743 32.0262 44.0497 32.0559 44.1118C32.0775 44.1523 32.091 44.1846 32.0964 44.2116C32.0991 44.2251 32.0937 44.2656 32.0883 44.2953C32.0775 44.3709 32.064 44.4653 32.0883 44.5651C32.1099 44.6568 32.1477 44.7216 32.1774 44.7701C32.1963 44.8025 32.2071 44.8187 32.2098 44.8376C32.2636 45.0561 32.2124 45.2936 32.1612 45.5444C32.1315 45.6767 32.1045 45.8062 32.091 45.9302C32.0856 45.9977 32.0667 46.0517 32.0451 46.1164C32.0208 46.1893 31.9966 46.2622 31.9804 46.3538C31.9345 46.6075 31.8778 46.9042 31.7942 47.1876C31.7241 47.4196 31.6944 47.6328 31.6647 47.8378C31.6512 47.9268 31.6377 48.0186 31.6216 48.113C31.5946 48.2775 31.5298 48.4394 31.4623 48.6094C31.3949 48.7767 31.3247 48.9494 31.2843 49.1382C31.2627 49.2326 31.2331 49.3244 31.2034 49.4188C31.1494 49.586 31.0927 49.7642 31.0819 49.9557C31.0684 50.1284 31.0738 50.3038 31.0792 50.4791C31.0819 50.5816 31.0846 50.6815 31.0819 50.7813C31.0792 51.2886 31.2492 51.7337 31.4111 52.1114L31.4542 52.2167C31.5784 52.5188 31.7214 52.8587 32.0451 53.0746C32.2339 53.2014 32.3878 53.2122 32.5389 53.2257L32.6495 53.2365C32.7223 53.2472 32.779 53.2661 32.8356 53.2823C32.9409 53.3174 33.0596 53.3525 33.2376 53.3525C33.2862 53.3525 33.3375 53.3552 33.386 53.3552C33.5318 53.3606 33.6963 53.366 33.8582 53.3228C33.9446 53.2985 34.0255 53.2634 34.1037 53.2257C34.1657 53.196 34.2305 53.1663 34.2548 53.1555C34.3762 53.1474 34.5003 53.1286 34.6217 53.0962L34.7188 53.0557L34.7728 52.9667C34.8835 52.9181 35.0129 52.8938 35.1478 52.8668C35.2909 52.8372 35.4365 52.8075 35.5849 52.7508C35.8816 52.6349 36.1326 52.4945 36.3997 52.3434L36.6803 52.1897C37.1282 51.9441 37.5896 51.6906 37.9781 51.3667C38.8684 50.6275 39.756 49.8775 40.6329 49.1328C40.8837 48.9197 41.1293 48.6498 41.3289 48.3747C41.1887 48.8387 40.8891 49.3433 40.471 49.81C40.3739 49.918 40.2579 50.0123 40.1364 50.1149C40.0258 50.2093 39.9099 50.3038 39.8073 50.4116C39.7317 50.4899 39.6535 50.5438 39.5752 50.6005C39.5132 50.6464 39.4512 50.6896 39.3891 50.7408C39.3298 50.7921 39.265 50.838 39.1948 50.8865C39.0842 50.962 38.9736 51.0403 38.8846 51.1266C38.8171 51.1914 38.7685 51.2508 38.72 51.3102C38.6687 51.3748 38.6309 51.4234 38.5663 51.4693C38.4583 51.5421 38.3477 51.5988 38.237 51.6555C38.1426 51.704 38.0482 51.7526 37.9538 51.8092C37.7325 51.9468 37.4816 52.0683 37.2414 52.1843L37.031 52.2867C36.8799 52.3623 36.7559 52.4568 36.6479 52.5404C36.5508 52.616 36.459 52.686 36.3592 52.7373C36.0652 52.883 35.7792 53.0018 35.593 53.0557C35.3448 53.1286 35.0858 53.1879 34.8295 53.2499L34.5353 53.3174C34.4113 53.3471 34.2845 53.3768 34.1711 53.4092C34.0444 53.4442 33.9499 53.5036 33.8744 53.5522C33.7988 53.6007 33.7556 53.6249 33.6963 53.6357L33.5021 53.6681C33.2808 53.7059 33.0596 53.7356 32.8437 53.741L32.6845 53.7383C32.5875 53.7383 32.4903 53.7356 32.3905 53.7383C32.2366 53.7437 32.118 53.7788 32.0128 53.8112C31.9561 53.83 31.8994 53.8489 31.8292 53.8597C31.2951 53.9434 30.796 53.8166 30.2645 53.6816C30.081 53.633 29.8949 53.5846 29.706 53.5468C29.5737 53.5198 29.4443 53.4982 29.3121 53.4766C29.1501 53.4523 28.991 53.4281 28.8291 53.3876L28.6537 53.3417C28.5647 53.3201 28.4757 53.2958 28.3812 53.2742C28.2679 53.2499 28.1519 53.2338 28.0359 53.2203C27.9415 53.2068 27.8497 53.196 27.758 53.1771C27.4423 53.1124 27.1294 53.0045 26.8002 52.8938C26.5169 52.7994 26.2229 52.6995 25.9233 52.6268C25.8074 52.5998 25.6886 52.5755 25.5699 52.5512C25.3649 52.5107 25.1733 52.4729 24.9898 52.4109C24.9332 52.3947 24.8847 52.3677 24.8334 52.3407C24.7659 52.3083 24.6957 52.2733 24.6148 52.2436M17.8779 49.5726L17.8509 49.4809C17.7807 49.238 17.7079 49.0249 17.5757 48.7659C17.4732 48.5663 17.4246 48.3801 17.368 48.1642C17.3437 48.0752 17.3167 47.9808 17.287 47.8836C17.26 47.7892 17.2304 47.6812 17.2007 47.5707C17.1036 47.1957 16.9902 46.7694 16.7825 46.4753C16.4236 45.9707 16.2915 45.4338 16.2052 44.7863C16.0621 43.7233 15.8436 42.7466 15.6116 41.7565C15.3256 40.5261 15.2878 39.2203 15.5063 38.0764C15.5657 37.758 15.6062 37.4612 15.6439 37.1429C15.6898 36.7732 15.7951 36.4414 15.9083 36.0906C15.9542 35.9503 16.0001 35.8101 16.0405 35.6644C16.1647 35.2435 16.2133 34.8091 16.2618 34.3882C16.3292 33.827 16.3913 33.2928 16.6125 32.8072C16.8148 32.3593 17.0712 31.9249 17.3167 31.5067C17.6162 30.9968 17.9265 30.4707 18.1584 29.8988C18.3878 29.3376 18.6441 28.779 18.8897 28.2394L19.1513 27.6594C19.3051 27.3194 19.4374 26.966 19.5614 26.6261C19.7125 26.2214 19.8664 25.8005 20.0579 25.4119L20.209 25.1017C20.3115 24.8886 20.414 24.6754 20.5219 24.4704C20.7 24.1358 20.9212 23.8471 21.156 23.5423C21.3152 23.3372 21.4716 23.1322 21.6173 22.9136C21.7442 22.7193 21.8682 22.5197 21.9924 22.32C22.2271 21.945 22.4672 21.5565 22.7343 21.2112C22.9016 20.9953 23.104 20.8065 23.3171 20.6068C23.4925 20.4449 23.6732 20.275 23.8378 20.0888C24.0752 19.8109 24.2776 19.5033 24.4719 19.2065C24.5581 19.0743 24.6445 18.9421 24.7335 18.8126C24.801 18.7155 24.8739 18.6237 24.944 18.5321C25.0168 18.4403 25.0896 18.3459 25.1571 18.2487C25.2785 18.0761 25.346 17.898 25.4134 17.7253C25.4539 17.6174 25.4943 17.5068 25.551 17.4042C25.7696 17.0077 26.1041 16.7217 26.4602 16.4222L26.552 16.3439C27.0646 15.9068 27.5206 15.5588 28.0629 15.2782C28.4703 15.0705 28.9451 14.9167 29.4011 14.771L29.7653 14.6523C30.4398 14.4284 31.1845 14.2908 31.8265 14.1828C32.8113 14.021 33.8177 13.94 34.9104 13.94L36.4294 13.94C36.6668 13.94 36.9096 13.9346 37.1552 13.9265C37.835 13.9023 38.5366 13.8807 39.1678 14.0318C39.9772 14.226 40.9053 14.6118 41.5907 15.0435C41.6878 15.1055 41.7849 15.173 41.882 15.2405C42.0439 15.3538 42.2113 15.4697 42.4163 15.5777C42.624 15.6613 42.8236 15.7693 42.9775 15.8771C43.1339 16.0256 43.2931 16.1713 43.4739 16.3304C43.5387 16.379 43.6087 16.4168 43.6816 16.4518C43.7545 16.4896 43.8246 16.5247 43.8678 16.5679C44.0189 16.7163 44.1592 16.9888 44.2725 17.2073L44.3346 17.3233C44.4236 17.4933 44.4938 17.6714 44.5638 17.8629C44.634 18.041 44.7015 18.219 44.7851 18.389C44.9955 18.8072 45.0819 19.1876 45.0198 19.4332C44.9847 19.5761 44.9335 19.6679 44.8229 19.7812C44.7123 19.8919 44.5611 19.997 44.483 20.0132C44.4803 20.0159 44.4776 20.0159 44.4722 20.0159C44.4668 20.0105 44.4587 19.9997 44.4479 19.9916C44.2833 19.8298 44.1268 19.6652 43.9703 19.498C43.7734 19.2902 43.5765 19.0824 43.366 18.8855C43.0557 18.5914 42.7373 18.3567 42.2975 18.1004C42.133 18.0059 41.9711 17.9061 41.8146 17.8089C41.3532 17.5257 40.8784 17.2315 40.3307 17.04L40.0204 16.9267C39.6778 16.7999 39.3217 16.6704 38.9574 16.5895C36.6102 16.0606 35.0237 16.441 34.2386 17.7226L34.1495 17.7496L33.7179 19.8352L34.5731 18.165C34.7998 18.1274 35.0777 18.1462 35.3502 18.165C35.5066 18.1731 35.6551 18.1839 35.79 18.1839L36.7478 18.1839C37.3656 18.1866 37.9835 18.1866 38.6012 18.1839C38.6741 18.1839 38.747 18.1812 38.8225 18.1758C38.9871 18.1677 39.157 18.1597 39.2866 18.1947C39.3109 18.2001 39.3594 18.2325 39.3999 18.2541C39.4647 18.2946 39.5374 18.3378 39.6211 18.3647C39.8694 18.4457 40.1014 18.5483 40.3469 18.6561C40.5816 18.7613 40.8245 18.8693 41.0861 18.9556C41.4342 19.0716 41.7418 19.2389 42.0682 19.4143L42.2113 19.4926C42.3272 19.5545 42.4459 19.6085 42.5674 19.6652C42.7454 19.7461 42.9154 19.8217 43.0557 19.9188C43.2607 20.0564 43.5414 20.3046 43.7383 20.5204L43.8462 20.6392C44.0431 20.8524 44.286 21.1194 44.4155 21.3271C44.6907 21.775 44.8607 22.3605 45.0198 22.919C45.125 23.2832 45.1304 23.6339 45.1304 24.0036C45.1331 24.1762 45.1331 24.3489 45.1439 24.5296C45.1574 24.732 45.1844 24.9317 45.2114 25.1313C45.2654 25.5279 45.314 25.9056 45.2411 26.2807C45.1925 26.5343 45.1655 26.7906 45.1412 27.0361C45.1143 27.314 45.0873 27.5758 45.0306 27.832C44.9982 27.9778 44.8796 28.0965 44.7446 28.234C44.6448 28.3339 44.5396 28.4391 44.456 28.5687C44.402 28.6549 44.3534 28.7332 44.3103 28.8087C44.2077 28.9841 44.1241 29.1217 43.9488 29.2971C43.6897 29.556 43.4658 29.78 43.1636 29.9365C43.0503 29.9958 42.937 30.0633 42.8236 30.1334C42.6564 30.236 42.4837 30.3385 42.3299 30.4006C41.8874 30.5705 41.4504 30.6623 40.9863 30.7594L40.6437 30.8323C40.4116 30.8835 40.1283 30.8727 39.8532 30.862L39.6292 30.8539C39.4971 30.8512 39.4539 30.8296 39.354 30.7756C39.2947 30.7432 39.2299 30.7081 39.1382 30.6731C38.6579 30.4761 38.2397 30.2549 37.862 29.9985C37.7946 29.9527 37.7217 29.9096 37.6489 29.8637C37.5167 29.78 37.3791 29.6964 37.2765 29.6046C37.139 29.4833 37.023 29.2674 36.915 29.0596C36.8341 28.9086 36.8341 28.7898 36.8367 28.539C36.8394 28.3609 36.8017 28.207 36.7694 28.0695C36.7451 27.9643 36.7208 27.8671 36.7181 27.7673C36.7154 27.7025 36.737 27.627 36.764 27.5434C36.7963 27.4462 36.8287 27.3383 36.8394 27.2116C36.8556 27.0092 36.8745 26.9363 36.9582 26.7421C36.9825 26.6827 37.0041 26.6288 37.0257 26.5775C37.0688 26.4614 37.0958 26.3859 37.1687 26.2969C37.3386 26.0918 37.5032 25.8921 37.6786 25.6817C37.835 25.4955 38.1588 25.1043 38.4475 25.0018C38.5555 24.964 38.8063 24.956 38.9332 24.9829C39.006 24.9991 39.1058 25.0693 39.1193 25.0828C39.0842 25.1826 38.7847 25.3067 38.6552 25.358C38.5878 25.3877 38.5285 25.4119 38.4826 25.4362C38.0266 25.6602 37.9322 25.9488 37.8242 26.2834L37.7541 26.4857C37.6138 26.8904 37.4654 27.3086 37.5923 27.7943C37.6839 28.1531 37.9457 28.4769 38.3477 28.7278C38.6147 28.8924 38.7982 28.8951 39.0599 28.9005C39.1516 28.9005 39.238 28.9248 39.3379 28.9491C39.4404 28.9787 39.559 29.0111 39.6967 29.0192L39.81 29.0246C40.1769 29.0461 40.6329 29.0704 40.9917 28.9841C41.99 28.744 42.8048 27.8536 43.0638 26.7178C43.1097 26.5154 43.1016 26.3077 43.0962 26.1215C43.0935 26.0622 43.0908 26.0028 43.0908 25.9461C43.0881 25.8167 43.1151 25.6979 43.1393 25.5684C43.1609 25.4686 43.1798 25.3715 43.1906 25.2663C43.2445 24.7644 42.964 24.0926 42.6726 23.7149C42.3758 23.3264 42.0493 23.0971 41.7418 22.9055C41.7067 22.8839 41.6662 22.8515 41.6258 22.8164C41.5367 22.7463 41.445 22.6708 41.3424 22.6303C41.2211 22.5818 41.0996 22.5575 40.9917 22.5386C40.9242 22.5251 40.8569 22.5116 40.7921 22.4927C40.7192 22.4684 40.6437 22.4387 40.5681 22.409C40.4521 22.3632 40.3361 22.3173 40.2174 22.2876C40.0663 22.2498 39.926 22.2552 39.8019 22.2606C39.729 22.266 39.6562 22.2687 39.5806 22.2606C39.5132 22.2525 39.4512 22.2309 39.3891 22.2121C39.2947 22.1825 39.1867 22.1501 39.0572 22.142C38.8225 22.1285 38.6606 22.1906 38.5069 22.2552L38.3962 22.2984C37.8809 22.4927 37.1741 22.7571 36.8341 23.3911C36.6075 23.8147 36.4375 24.2842 36.2729 24.7347C36.1866 24.9694 36.1029 25.2015 36.0112 25.4227C35.9815 25.4955 35.9815 25.5657 35.9977 25.617C35.9842 25.6386 35.9599 25.6656 35.9383 25.6925C35.8951 25.7492 35.8521 25.8032 35.8305 25.8464C35.79 25.9218 35.7441 25.9893 35.6982 26.0568C35.6605 26.1188 35.62 26.1782 35.5822 26.2403C35.3664 26.6099 35.1586 26.9309 34.7971 27.109C33.9176 27.5407 33.216 27.7241 32.4525 27.7241C32.3473 27.7241 32.2285 27.7349 32.1072 27.743C31.8967 27.7592 31.6566 27.7754 31.4947 27.7295C31.4596 27.6998 31.4003 27.6513 31.3032 27.6216C31.2304 27.6001 31.1629 27.6001 31.0711 27.6028C30.9389 27.565 30.7663 27.484 30.6125 27.4139L30.4317 27.3302C30.1457 27.2062 29.9461 27.1009 29.7167 26.8985C29.6385 26.8338 29.5629 26.7313 29.4848 26.6207C29.3255 26.4048 29.1474 26.1593 28.8534 26.0622C28.0953 25.8086 27.4153 26.0379 26.7571 26.2591L26.5925 26.3158C26.4305 26.367 26.2714 26.4426 26.1068 26.5208C26.007 26.5667 25.9044 26.6153 25.7993 26.6584C25.6643 26.7151 25.5159 26.761 25.3649 26.8095C25.0249 26.9147 24.6715 27.0254 24.3936 27.2465C24.283 27.3356 24.1939 27.4354 24.1076 27.5326C24.0375 27.6108 23.97 27.681 23.8972 27.743C23.8081 27.7295 23.7137 27.7214 23.6057 27.7241C23.4088 27.7268 23.2091 27.7268 23.0095 27.7241L22.0706 27.7241L22.0706 27.9778L22.0706 28.2313L23.0095 28.234C23.0878 28.234 23.1686 28.2313 23.2469 28.2313C23.3683 28.2313 23.4925 28.2313 23.6138 28.2313C23.6219 28.2286 23.63 28.2313 23.6381 28.2313C23.7811 28.2286 23.8972 28.2475 24.0159 28.2799C24.0968 28.3015 24.175 28.3285 24.2695 28.3609L24.453 28.4202C24.5959 28.4661 24.747 28.5039 24.8954 28.5417C25.1274 28.6009 25.346 28.6549 25.551 28.744C25.6509 28.7844 25.7453 28.8492 25.8452 28.9167C25.9395 28.9814 26.034 29.0435 26.1392 29.0974C26.5061 29.2863 26.8137 29.4887 27.1051 29.7341L27.178 29.7935C27.3884 29.9742 27.6285 30.1766 27.8929 30.2819C28.1196 30.3736 28.2409 30.5057 28.4055 30.6866C28.4622 30.7513 28.5216 30.8161 28.589 30.8835C28.7589 31.0562 28.9505 31.21 29.1339 31.3583C29.3417 31.5229 29.5359 31.6794 29.6979 31.8547L29.7977 31.9627C29.9164 32.0895 30.0378 32.2191 30.1133 32.3431C30.1511 32.4052 30.1781 32.4645 30.2051 32.5239C30.2564 32.6372 30.313 32.764 30.4209 32.8881C30.456 32.9259 30.4802 32.9502 30.5018 32.9718C30.5369 33.0068 30.5369 33.0068 30.5693 33.0905C30.6341 33.2604 30.7096 33.4223 30.7852 33.5816C30.8822 33.7919 30.974 33.9889 31.0388 34.1966C31.1224 34.4503 31.0415 34.6202 30.8822 34.9225C30.8419 35.0033 30.7987 35.0843 30.7582 35.1733C30.6853 35.3271 30.6368 35.489 30.5855 35.6509C30.5099 35.891 30.4398 36.1203 30.2941 36.3146C30.1673 36.4926 29.9811 36.6303 29.7869 36.7759C29.6763 36.8569 29.5683 36.9378 29.4659 37.0269C29.1232 37.3263 28.8129 37.4747 28.5701 37.4423C28.4487 37.4289 28.3219 37.356 28.1519 37.1996C28.0548 37.1078 28.0494 37.0511 28.0305 36.8973C28.0197 36.8137 28.0089 36.7247 27.9846 36.6249L27.9685 36.5601C27.9118 36.3415 27.8983 36.2957 27.9712 36.1068C28.0656 35.8667 28.125 35.7021 28.1277 35.4081C28.1304 35.2111 28.1923 34.979 28.2706 34.7443C28.303 34.6904 28.3489 34.6094 28.357 34.4719C28.365 34.31 28.3192 34.1939 28.2787 34.0995C28.2652 34.0671 28.2517 34.0348 28.2409 33.997C28.1358 33.6057 27.9846 33.1067 27.7445 32.7154C27.499 32.3188 27.1537 32.2056 26.8514 32.1057C26.7463 32.0733 26.641 32.0383 26.5331 31.9897C26.2175 31.8467 25.8801 31.7873 25.6212 31.7496C25.578 31.7442 25.5321 31.7253 25.4781 31.7037C25.4081 31.6767 25.3325 31.6471 25.2381 31.6309C25.1436 31.6147 25.0627 31.6228 24.9871 31.6282C24.9359 31.6309 24.8874 31.6336 24.855 31.6282C24.6688 31.5904 24.5095 31.5148 24.3396 31.4366C24.086 31.3205 23.8027 31.1857 23.4169 31.1857L23.4061 31.1857L23.139 31.1884C22.6048 31.1884 22.0598 31.1965 21.5229 31.2774C21.4177 31.2936 21.3152 31.3125 21.21 31.334C21.102 31.3583 20.9914 31.3853 20.8834 31.4177C20.843 31.4285 20.8026 31.4339 20.7648 31.4474C20.5219 31.5283 20.325 31.6578 20.1334 31.7819C20.0201 31.8574 19.9041 31.933 19.78 31.9951C19.6963 32.0356 19.5911 32.103 19.4779 32.1759C19.4293 32.2083 19.3618 32.2513 19.2971 32.2918C19.1945 32.3539 19.0893 32.4106 19.0381 32.416L19.0542 32.6669L19.0704 32.9205C19.289 32.907 19.5263 32.7505 19.7557 32.5995C19.8475 32.5401 19.9338 32.4834 20.0039 32.4483C20.1469 32.3782 20.2791 32.2918 20.4114 32.2056C20.4275 32.1948 20.4437 32.1867 20.4598 32.1759C20.414 32.2459 20.3709 32.3215 20.3223 32.3917C20.2306 32.5212 20.1415 32.6507 20.0606 32.7829C19.7881 33.2307 19.7071 33.7272 19.6289 34.2074C19.5965 34.4233 19.5614 34.6337 19.5101 34.8388C19.4374 35.1221 19.351 35.4027 19.2647 35.6833C19.1837 35.9503 19.1028 36.2148 19.0327 36.4818C18.976 36.695 18.9517 36.8973 18.9247 37.097C18.9166 37.1726 18.9059 37.2507 18.8951 37.329C18.8654 37.5071 18.8114 37.6878 18.752 37.8794C18.6684 38.1438 18.5848 38.4136 18.574 38.6969C18.5659 38.8669 18.5416 39.0342 18.5174 39.1987C18.4931 39.3607 18.4715 39.5225 18.4607 39.6871C18.4472 39.9246 18.4526 40.17 18.458 40.4128C18.4634 40.5396 18.4661 40.6692 18.4661 40.796L18.4661 42.6226C18.4661 42.9436 18.4391 43.2484 18.4094 43.5723C18.3797 43.9122 18.3473 44.2602 18.3527 44.6244C18.3554 44.9535 18.4256 45.3098 18.4877 45.6227L18.4985 45.6767C18.5201 45.7846 18.5308 45.8952 18.5443 46.0031C18.5659 46.2001 18.5902 46.4051 18.6549 46.6021C18.9949 47.6085 19.3807 48.5069 19.8394 49.346C20.2009 50.0069 20.6973 50.6383 21.4527 51.391C21.7253 51.6663 22.0247 51.9495 22.3674 52.2544C22.6777 52.5323 22.9744 52.6538 23.2901 52.7832C23.3683 52.8156 23.4466 52.8453 23.5276 52.883C23.7002 52.9586 23.8756 53.0261 24.0509 53.0908C24.2506 53.1663 24.4503 53.2418 24.6472 53.3336C25.1193 53.5522 25.5294 53.7032 25.9071 53.7977C26.2229 53.8759 26.5331 53.965 26.8433 54.0566C27.1645 54.1484 27.4882 54.2428 27.8119 54.3238C27.9415 54.3562 28.071 54.3859 28.2004 54.4155C28.4379 54.4695 28.6807 54.5261 28.9128 54.5935C29.0072 54.6205 29.0962 54.6583 29.1852 54.6961C29.2743 54.7312 29.3633 54.769 29.4551 54.7986C29.9056 54.9417 30.3562 54.9309 30.7906 54.9201L31.063 54.9147C31.4947 54.9066 31.9588 54.9471 32.3986 54.9847C33.0974 55.0441 33.815 55.1062 34.538 55.0063C35.6551 54.8526 36.5211 54.5315 37.4384 53.9353C37.4897 53.9029 37.5572 53.8732 37.6246 53.8435C37.746 53.7923 37.8728 53.7383 37.9673 53.6519C38.0482 53.5792 38.0833 53.5225 38.1238 53.4469C38.2613 53.3066 38.4556 53.2176 38.6606 53.1178C38.7658 53.0692 38.8711 53.018 38.9709 52.9613C39.4377 52.6968 39.8478 52.338 40.2417 51.99C40.4494 51.8092 40.6545 51.6285 40.8649 51.4639C41.2454 51.1698 41.4773 50.7247 41.704 50.2957C41.7876 50.1365 41.8685 49.9799 41.9576 49.837C42.3029 49.2731 42.7184 48.5069 42.8641 47.5599C42.9613 46.9204 43.1366 46.2811 43.3066 45.6632C43.3741 45.4257 43.4388 45.1856 43.5009 44.9483C43.6546 44.352 43.6492 43.7611 43.6465 43.1918C43.6465 43.0326 43.6465 42.8734 43.6465 42.7115C43.66 41.8455 43.3444 40.9254 42.7103 39.9811C42.6483 39.8895 42.5944 39.7869 42.5377 39.6871C42.454 39.5333 42.3677 39.3768 42.2489 39.2284C42.0952 39.0342 41.9225 38.9452 41.7526 38.8561C41.7094 38.8345 41.6608 38.8102 41.6123 38.7833L41.4342 38.678C41.1698 38.5216 40.8676 38.3435 40.5627 38.2517C40.4575 38.222 40.3469 38.2032 40.2363 38.187C40.1553 38.1735 40.0744 38.1627 39.9961 38.1411C39.926 38.1223 39.8343 38.1088 39.7344 38.1007C40.2795 38.0144 40.8703 38.0278 41.4773 38.0494C41.7634 38.0602 42.0817 38.1816 42.3866 38.3003C42.4837 38.3354 42.5782 38.3732 42.6726 38.4055C43.0152 38.527 43.231 38.6591 43.4415 38.875C43.8921 39.3391 44.2536 40.0324 44.4587 40.8257C44.5396 41.144 44.6529 41.4516 44.7635 41.7511C44.804 41.8671 44.8472 41.9831 44.8877 42.0964C45.0009 42.4202 45.0414 42.8006 45.0792 43.1675C45.0954 43.3105 45.1089 43.4481 45.1277 43.5831C45.1979 44.101 45.1952 44.8538 44.9766 45.4095C44.8688 45.6794 44.8121 45.9437 44.7554 46.2028C44.7069 46.4375 44.6583 46.6588 44.5773 46.8746C44.483 47.1255 44.3696 47.3791 44.259 47.6328C44.0216 48.1642 43.7787 48.7146 43.6735 49.292C43.5711 49.8532 43.4145 50.4332 43.2634 50.9917L43.1798 51.3021C43.0854 51.6501 42.9883 51.9927 42.8317 52.3164C42.767 52.4487 42.713 52.5836 42.6591 52.7184C42.562 52.9613 42.4702 53.1906 42.3083 53.3876C42.1087 53.6303 41.8712 53.8381 41.6231 54.0539C41.3667 54.2806 41.0996 54.5153 40.873 54.7932C40.7435 54.9551 40.6329 55.0036 40.3739 55.117C40.1418 55.2222 39.9529 55.3652 39.7722 55.5028C39.6076 55.6296 39.4512 55.7483 39.2758 55.8266C39.1274 55.894 38.9655 55.9425 38.7928 55.9938C38.6606 56.0316 38.5285 56.0721 38.3989 56.1207C38.1642 56.2097 37.9403 56.3176 37.7136 56.4282C37.5815 56.4903 37.4519 56.555 37.3197 56.6117C36.6479 56.9111 35.9626 57.0461 35.2342 57.1891L34.8592 57.2646C33.5372 57.5371 32.2636 57.5371 30.9173 57.5371L29.1259 57.5371C28.9721 57.5371 28.8183 57.5425 28.6618 57.5452C28.3165 57.5587 27.9604 57.5722 27.6393 57.5182C27.3236 57.4697 27.0026 57.386 26.6896 57.305C26.4305 57.2376 26.1716 57.1702 25.9125 57.1189L25.524 57.0461C25.1355 56.9732 24.7713 56.9057 24.4044 56.7924C24.2587 56.7493 24.1157 56.7169 23.9727 56.6846C23.7946 56.6441 23.63 56.609 23.4709 56.5496L23.2361 56.4633C22.934 56.3553 22.6507 56.2556 22.3728 56.091C22.1435 55.9587 21.9033 55.8643 21.6713 55.7726C21.4419 55.6836 21.2235 55.5972 21.0238 55.4785C20.843 55.3679 20.6461 55.2735 20.4518 55.179C20.2279 55.0711 20.0174 54.9686 19.8286 54.8472C19.5992 54.6961 19.3132 54.3778 19.1621 54.0998C19.1055 53.9947 19.0462 53.8867 18.9841 53.7788C18.7817 53.42 18.5713 53.0476 18.4499 52.6806C18.3042 52.2409 18.1638 51.7741 18.0992 51.3397C18.0776 51.1887 18.0803 51.0376 18.083 50.8784C18.0857 50.7813 18.0884 50.6869 18.083 50.587C18.0722 50.2282 17.975 49.8937 17.8779 49.5726M55.2102 33.3899C55.0267 32.7451 54.8379 32.1516 54.7435 31.477C54.6733 30.9779 54.6031 30.4707 54.4791 29.9796C54.3873 29.6046 54.2416 29.2485 54.1499 28.8735C53.8531 27.6351 53.5132 26.3859 53.2865 25.1313C53.2406 24.8805 53.2406 24.643 53.1543 24.4002C53.0626 24.1438 52.9169 23.9092 52.8144 23.6555C52.6175 23.1672 52.3908 22.6735 52.2316 22.1744C52.0077 21.4782 51.6111 20.8765 51.3871 20.1832C51.1713 19.5194 50.7612 18.9853 50.5777 18.3081C50.2405 17.0697 49.9922 15.7828 49.4473 14.6064C48.8402 13.306 48.1657 12.0028 47.3185 10.832C47.0676 10.4865 46.8059 10.1655 46.5847 9.7959C46.4794 9.6205 46.3796 9.4182 46.234 9.2698C46.0856 9.1213 45.9074 9.0297 45.7753 8.8597C45.5891 8.6195 45.4812 8.3228 45.3382 8.0611C45.152 7.7157 44.9443 7.3973 44.6259 7.16C44.1618 6.8172 43.8057 6.4179 43.3687 6.0456C42.4945 5.301 41.5583 4.6589 40.641 3.9682C39.5482 3.1479 38.4745 2.2711 37.2981 1.5697C36.9204 1.3457 36.5373 1.1407 36.1623 0.9167C36.0328 0.8385 35.8762 0.817 35.844 0.6766C35.4581 0.415 35.2018 0.1964 34.9536 0.0884C34.6703 -0.0357 34.3654 0.0075 34.0578 0.0075C33.6018 0.0048 33.1459 0.0075 32.6899 0.0075C32.1693 0.0075 31.8104 0.0426 31.3086 0.1559C30.3778 0.361 29.509 0.5525 28.6942 1.0759C28.4973 1.2028 28.3165 1.3673 28.1358 1.513C27.9496 1.6641 27.8659 1.8583 27.6986 2.0202C27.3991 2.317 27.0322 2.4843 26.6707 2.6732C26.4063 2.8134 26.1743 3.0185 25.899 3.1452C25.694 3.237 25.4781 3.2694 25.2758 3.3692C24.345 3.836 23.6354 4.729 22.8935 5.4386C22.1462 6.1563 21.558 6.9279 21.0507 7.8209C20.3088 9.1267 19.6262 10.4676 18.9976 11.8301C18.1962 13.565 16.5154 14.5794 15.5036 16.174C15.0531 16.8862 14.7212 17.6552 14.411 18.4295C14.1978 18.9583 13.7985 19.4494 13.4802 19.9188C13.1106 20.4611 12.5898 20.8792 12.2606 21.4539C12.0394 21.837 11.8964 22.2579 11.6779 22.6411C11.3973 23.1322 11.0789 23.5477 10.8846 24.0872C10.7093 24.5674 10.5744 25.0639 10.4287 25.5549C10.2291 26.2322 10.0833 26.9309 9.8325 27.592C9.684 27.9859 9.479 28.3609 9.3441 28.7575C9.1282 29.3996 8.9448 30.0282 8.8531 30.7054C8.6021 32.5347 8.7208 34.3531 9.077 36.1635C9.1822 36.7031 9.3306 37.2453 9.39 37.7931C9.4521 38.3759 9.3819 39.0018 9.3819 39.5899C9.3819 40.5531 9.5006 41.6108 9.3576 42.5659C9.2308 43.4077 9.1687 44.2062 9.2578 45.0534C9.3333 45.7792 9.4278 46.5373 9.5977 47.2496C9.7569 47.9187 9.9781 48.5609 10.0536 49.2488C10.1076 49.7345 10.2479 50.1742 10.4179 50.6302C10.6499 51.2454 10.8388 51.8794 11.0735 52.4891C11.2219 52.8749 11.4782 53.2284 11.7022 53.5765C11.9072 53.8894 12.0583 54.205 12.2444 54.5288C12.5224 55.0117 12.9055 55.4866 13.2427 55.9371C14.009 56.9651 14.9964 58.0012 15.9677 58.8483C16.7879 59.5633 17.8023 60.003 18.7898 60.3808C19.2269 60.5481 19.6208 60.7963 19.9877 61.1012C20.3061 61.3655 20.557 61.6219 20.9374 61.7972C21.2477 61.9375 21.5337 62.0968 21.8358 62.2451C22.5266 62.5851 23.3602 62.6715 24.0887 62.9331C24.7497 63.1732 25.4161 63.4646 26.1014 63.6211C26.4872 63.7101 26.8622 63.8262 27.2426 63.9206C27.6285 64.0124 28.017 63.9827 28.4109 63.9827C29.0638 63.98 29.7194 63.9827 30.3724 63.9827C31.9804 63.9827 33.5426 63.9422 35.1343 63.6454C35.5336 63.5726 35.9518 63.5429 36.343 63.4377C36.8287 63.3054 37.2306 62.9871 37.6947 62.8063C38.4016 62.5311 39.1166 62.2613 39.8073 61.9618C40.2228 61.781 40.614 61.5436 41.0349 61.3682C41.3613 61.2307 41.704 61.1497 42.0359 61.031C42.8992 60.7235 43.7032 60.2297 44.5638 59.9006C45.2519 59.6361 45.6431 59.3124 46.1179 58.7566C46.9813 57.7529 47.9067 56.8248 48.6378 55.7106C49.3475 54.6205 50.2216 53.6115 50.8637 52.4891C51.4573 51.4504 52.1777 50.444 52.6202 49.3217C53.0491 48.2397 53.6156 47.2361 54.0177 46.1407C54.5006 44.8268 54.6544 43.4211 54.8838 42.0533C54.9862 41.4327 55.0024 40.6935 54.8811 40.0783C54.8001 39.6709 54.8838 39.4524 54.9432 39.0611C54.9997 38.6726 54.9108 38.249 54.9324 37.8551C54.9538 37.3992 55.1374 36.9459 55.1616 36.4872C55.1913 35.9314 55.2723 35.4 55.2723 34.8361C55.2696 34.3639 55.3371 33.8432 55.2102 33.3899" /></g></svg>
