<?xml version="1.0" encoding="UTF-8"?>
<svg xmlns="http://www.w3.org/2000/svg" width="64" height="64" viewBox="0 0 64 64"><title>TCU-Before-the-Black-Throne</title><g fill="#000000" id="TCU-Before-the-Black-Throne"><path d="M45.2687 1.6927C45.2327 1.7257 45.2087 1.7588 45.1817 1.7918C45.2927 1.7377 45.4068 1.6837 45.5209 1.6298C45.4759 1.4856 45.3227 1.6418 45.2687 1.6927" /><path d="M39.3244 13.152C39.4535 12.9209 39.5826 12.6867 39.7117 12.4525C39.8828 12.5246 40.06 12.5967 40.234 12.6687L39.9849 13.3412C39.7687 13.2721 39.5465 13.2091 39.3244 13.152M37.9014 22.2427C38.2736 22.648 38.5499 23.1193 38.9131 23.5336C40.1621 24.9537 41.2248 26.6319 41.3929 28.5563C41.474 29.5019 41.474 30.5257 41.3028 31.4594C41.0957 32.5822 40.9126 33.684 40.6003 34.7828C40.3181 35.7705 39.9068 36.7071 39.4055 37.6048C39.1173 38.1242 38.877 38.6616 38.5979 39.184C38.3847 38.2293 38.2706 37.2506 38.2736 36.2689C38.2766 34.9809 38.3667 33.696 38.5078 32.417C38.6459 31.1561 38.859 29.9193 38.829 28.6464C38.793 27.2173 38.5829 25.8033 37.8894 24.5333C37.322 23.4916 36.6674 22.4918 35.7518 21.7293C35.6347 21.6303 35.5116 21.5342 35.3855 21.4411C35.5627 21.0748 35.7428 20.7116 35.923 20.3453C36.2532 20.6155 36.5684 20.9007 36.8716 21.2009C37.2169 21.5462 37.5741 21.8824 37.9014 22.2427M23.0166 25.9803C22.3081 26.6949 21.6416 27.4694 21.0861 28.3161C21.1282 27.7727 21.2062 27.2293 21.3233 26.6949C21.5485 25.6952 21.9118 24.7255 22.4161 23.8308C22.9205 24.2331 23.4129 24.6444 23.8992 25.0678C23.608 25.3709 23.3138 25.6772 23.0166 25.9803M27.5138 42.3183C27.6399 43.1198 27.772 43.9184 27.5979 44.723C27.5198 45.0803 27.4357 45.4435 27.2887 45.7828C27.2437 45.8909 27.1806 45.9959 27.1086 46.098C27.0305 46.0019 26.9464 45.9089 26.8714 45.8098C26.4811 45.3024 26.1748 44.735 25.8447 44.1916C25.2411 43.2099 24.6707 42.1952 24.3225 41.0903C23.9622 39.9465 23.7221 38.7037 23.6591 37.5027C23.6531 37.2506 23.6561 36.9984 23.6561 36.7462C23.8541 36.9143 24.0523 37.0855 24.2445 37.2626C25.6915 38.6136 27.1956 40.2887 27.5138 42.3183M40.7565 10.357C40.9576 9.9367 41.1527 9.5104 41.3539 9.0901C41.429 9.0721 41.501 9.0601 41.5761 9.0421L40.7775 11.2006C40.6454 11.1826 40.5163 11.1646 40.3842 11.1406C40.5103 10.8795 40.6364 10.6212 40.7565 10.357M46.1574 9.4384C46.0913 9.5134 46.0312 9.5945 45.9592 9.6665C45.605 10.0268 45.1847 10.306 44.7583 10.5702C44.254 10.8825 43.7527 11.1496 43.1582 11.2157C42.6058 11.2757 42.0384 11.2607 41.483 11.2487C41.3449 11.2487 41.2098 11.2337 41.0777 11.2247C41.447 10.4801 41.7982 9.7266 42.1165 8.961C42.5788 8.916 43.0532 8.922 43.5125 8.928C44.4011 8.937 45.3047 9.1442 46.1574 9.4384M49.3968 8.6248C49.6639 8.7509 49.9221 8.994 50.1233 9.2012C50.4234 9.5104 50.4745 9.8076 50.6126 10.204C50.6396 10.288 50.6697 10.369 50.6997 10.4501C50.4925 10.2549 50.2823 10.0599 50.0782 9.8617C49.6128 9.4234 49.1505 8.973 48.6702 8.5467C48.9193 8.5047 49.1746 8.5167 49.3968 8.6248M12.7371 18.3278C12.4369 18.571 12.0796 18.7512 11.8004 19.0213C11.6203 19.1925 11.4762 19.4087 11.3321 19.6097C10.9748 20.0991 10.5095 20.5885 10.2633 21.1469C10.0352 21.6722 9.828 22.1496 9.3747 22.5098C8.9033 22.8822 8.5521 23.3114 7.9817 23.5516C7.4983 23.7528 6.9789 23.9569 6.4746 24.104C6.1773 24.1941 5.8862 24.2241 5.6009 24.2121C5.634 24.05 5.664 23.8818 5.709 23.7258C6.0122 22.669 6.5016 21.6512 7.1621 20.7716C7.9397 19.7418 8.9934 18.8712 10.1493 18.2918C10.5365 18.0966 10.9238 17.9376 11.3411 17.8115C11.6863 17.7064 12.0436 17.6253 12.3798 17.4872C12.7491 17.3372 13.1304 17.157 13.4336 16.8928C13.5627 16.9829 13.6918 17.0699 13.8178 17.16C13.4576 17.5502 13.1484 17.9886 12.7371 18.3278M63.6601 27.8508C63.3268 27.5625 62.8285 27.4364 62.4171 27.2984C61.6966 27.0552 60.8681 27.0221 60.1085 27.0732C59.2829 27.1272 58.5324 27.4274 57.7398 27.6406C57.1844 27.7877 56.575 27.7787 56.0045 27.7847C55.6323 27.7877 55.2629 27.7877 54.8907 27.7577C54.0351 27.6886 53.1194 27.5655 52.3179 27.2624C51.4833 26.9441 50.6787 26.5118 49.9762 25.9623C49.4388 25.5421 49.0364 24.9867 48.6192 24.4553C48.2889 24.038 47.9857 23.6237 47.7185 23.1643C47.4513 22.699 47.1691 22.2337 46.995 21.7233C46.8929 21.4171 46.8268 21.0928 46.7578 20.7776C46.6677 20.3573 46.5957 19.937 46.5867 19.5106C46.5807 19.1594 46.5927 18.8081 46.5387 18.4599C46.4396 17.7995 46.1303 17.16 45.7101 16.6496C44.8995 15.6589 43.6386 14.9714 42.5157 14.398C41.6961 13.9807 40.8616 13.6204 39.9969 13.3442C40.108 13.131 40.216 12.9179 40.3271 12.7047C40.3391 12.7077 40.3511 12.7138 40.3631 12.7198C40.9305 12.945 41.486 13.2451 42.1074 13.2751C42.4526 13.2902 42.8009 13.2691 43.1341 13.1791C43.3743 13.092 43.6176 13.02 43.8667 12.963C44.0769 12.9299 44.278 12.8699 44.4702 12.7858C44.7884 12.6297 45.0376 12.4105 45.2687 12.1404C45.587 11.777 45.8572 11.3898 46.1273 10.9905C46.3105 10.7203 46.5327 10.4771 46.6947 10.192C46.7818 10.0418 46.8599 9.8887 46.9409 9.7416C48.0488 10.204 49.0455 10.8404 49.9491 11.636C50.3604 11.9992 50.7357 12.3955 51.0959 12.8008C51.1049 13.2631 51.1109 13.7255 51.0659 14.1788C51.0269 14.551 50.9249 14.9174 50.9069 15.2896C50.8919 15.6049 50.9039 15.932 50.9099 16.2473C50.9189 16.8387 50.9938 17.5172 51.216 18.0697C51.4803 18.7272 51.8435 19.2825 52.2278 19.8679C52.537 20.3363 53.0114 20.7776 53.5698 20.9427C54.0501 21.0838 54.7376 20.9278 55.1129 20.6125C55.2719 20.4804 55.371 20.2972 55.4761 20.1232C55.6233 19.874 55.7764 19.6127 55.8214 19.3216C55.8665 19.0303 55.8244 18.7212 55.8304 18.4299C55.8424 18.568 55.7974 18.7482 55.7614 18.8802C55.7223 19.0153 55.6503 19.0393 55.5542 19.1354C55.4341 19.2555 55.341 19.4177 55.182 19.4957C55.0198 19.5767 54.8307 19.5347 54.6625 19.5017C54.2483 19.4237 53.6749 19.3096 53.3296 19.0513C52.8913 18.7212 52.7201 18.1687 52.507 17.6854C52.0206 16.5716 52.1107 15.3586 52.2909 14.1848C52.8733 14.8513 53.4437 15.5598 54.1672 16.0822C54.7136 16.4755 55.359 16.8688 56.0525 16.8808C56.737 16.8958 57.4515 16.8778 58.1 16.6316C59.8293 15.9741 61.3484 14.356 61.4565 12.4435C61.4835 11.9452 61.4925 11.4348 61.4295 10.9424C61.3574 10.387 61.1893 9.8226 61.0091 9.2943C60.6399 8.2285 59.8623 7.3039 59.0127 6.5773C58.139 5.8298 56.8511 5.4184 55.7103 5.4214C55.2479 5.4244 54.8006 5.4485 54.3684 5.6466C54.0591 5.7878 53.5788 6.0609 53.3476 6.3281C52.8553 6.9045 52.9964 7.7301 53.3386 8.3306C53.3806 8.4026 53.7379 9.0211 53.927 8.994C53.981 8.8589 53.8729 8.6158 53.8669 8.4747C53.8579 8.1534 53.909 7.7932 54.0531 7.5049C54.2302 7.1417 54.5454 7.1357 54.9177 7.1567C55.4371 7.1898 55.8845 7.3459 56.3378 7.598C57.3765 8.1804 58.082 9.2072 58.085 10.4201C58.091 11.5159 57.5206 12.7348 56.4639 13.1761C55.0559 13.7676 53.5968 12.9359 52.4799 12.0383C52.4739 11.9722 52.4769 11.9062 52.4709 11.8401C52.4319 11.3958 52.3718 10.9604 52.3089 10.5192C52.2518 10.1439 52.2008 9.7806 52.0386 9.4324C51.7204 8.7479 51.2821 7.9944 50.6997 7.4989C50.2553 7.1177 49.6189 6.5323 49.0124 6.4963C48.7453 6.4783 48.5081 6.5053 48.2769 6.6464C48.0188 6.8114 47.8296 7.0847 47.6494 7.3279C47.5834 7.4149 47.5233 7.5079 47.4633 7.598C47.4393 7.58 47.4152 7.562 47.3912 7.547C46.7698 7.1357 46.1183 6.7694 45.4218 6.5053C44.7163 6.238 43.9447 6.0219 43.1732 5.9828C43.3233 5.5265 43.4764 5.0762 43.6476 4.6289C43.8547 4.0915 44.0889 3.6022 44.3831 3.1127C44.5782 2.7886 44.7854 2.4733 44.9505 2.1341C45.0226 1.996 45.0916 1.8909 45.1817 1.7918C44.5902 2.071 43.9988 2.3413 43.3683 2.5243C42.3926 2.8096 41.3929 3.0258 40.4112 3.2869C39.0152 3.6592 37.6222 4.0314 36.2171 4.3707C34.5599 4.77 32.9298 5.2653 31.2756 5.6857C29.6303 6.1059 27.9792 6.4933 26.34 6.9556C24.5146 7.4719 22.6863 7.9764 20.8851 8.5708C20.0084 8.8739 19.1317 9.1622 18.2491 9.4384C17.3215 9.7116 16.3968 10.0028 15.4811 10.312C13.2955 11.0775 11.206 12.0563 9.0624 12.9149C8.8402 13.005 8.6452 13.095 8.42 13.158C8.3659 13.1731 8.2188 13.2031 8.1888 13.2541C8.1107 13.3952 8.7022 13.6925 8.7593 13.7285C9.5788 14.2449 10.3744 14.7732 11.167 15.3316C11.3201 15.4397 11.4762 15.5448 11.6294 15.6499C11.233 16.0191 10.6596 16.2353 10.2063 16.4665C9.807 16.6646 9.4378 16.9198 9.0834 17.193C8.6602 17.5202 8.1888 17.7965 7.8226 18.1867C7.4472 18.589 7.108 19.0093 6.8108 19.4717C6.3755 20.1472 6.0722 20.9037 5.682 21.6063C5.3427 22.2217 4.9855 22.8401 4.7213 23.4946C4.6612 23.6477 4.6042 23.8068 4.5501 23.9629C4.1118 23.7798 3.7006 23.5066 3.3283 23.1823C2.95 22.8491 2.6408 22.4618 2.4186 22.0115C2.3316 21.8404 2.2235 21.6632 2.1635 21.4801C2.0974 21.285 2.1004 21.0538 2.0884 20.8527C2.0644 20.4323 2.0403 20.0151 2.2565 19.6428C2.4396 19.3276 2.6318 19.0513 2.947 18.8592C3.3132 18.6371 3.6495 18.508 4.0818 18.538C3.9857 18.508 3.9557 18.4269 3.8896 18.3608C3.7276 18.1927 3.4394 18.0996 3.2112 18.0667C2.6197 17.9796 1.9833 18.0727 1.4399 18.3188C0.8095 18.6041 0.4462 19.0634 0.2091 19.7088C0.089 20.0301 0.0769 20.3302 0.0619 20.6695C0.0499 20.9278 -0.0041 21.1799 0.0109 21.4411C0.0409 21.9485 0.293 22.4828 0.5392 22.9272C0.8125 23.4255 1.0856 23.9329 1.4609 24.3622C1.8632 24.8185 2.3016 25.3109 2.8179 25.6411C3.079 25.8093 3.3763 25.9563 3.6886 26.0764C3.5054 26.6738 3.3943 27.3074 3.2802 27.9078C3.1601 28.5353 3.0911 29.1627 3.0881 29.8022C3.0851 30.3966 3.0731 30.991 3.1451 31.5795C3.2142 32.1319 3.3553 32.6542 3.5475 33.1796C3.9857 34.3775 4.8143 35.3652 5.682 36.2809C6.4806 37.1245 7.3542 37.9411 8.3059 38.6106C8.7653 38.9348 9.2005 39.214 9.7379 39.3912C10.1463 39.5262 10.5095 39.5742 10.9388 39.5772C11.6863 39.5802 12.626 39.3401 13.0853 38.7097C13.2655 38.4635 13.5147 38.1992 13.5777 37.8961C13.6438 37.5688 13.5627 37.1906 13.4126 36.8993C13.2264 36.5361 12.9473 36.2478 12.6921 35.9296C12.626 35.8456 12.554 35.7795 12.4819 35.7135C12.4759 36.1668 12.0106 36.491 11.5573 36.5181C11.0498 36.5481 10.6386 36.455 10.2033 36.1998C9.7439 35.9326 9.3116 35.6234 8.8793 35.3201C7.8646 34.6056 6.8979 33.648 6.2824 32.5671C5.2977 30.8349 5.0125 28.7394 5.1807 26.7699C5.1927 26.6498 5.2107 26.5328 5.2256 26.4127C5.3427 26.4157 5.4598 26.4187 5.5799 26.4157C5.8892 26.4157 6.2014 26.4397 6.5076 26.4097C6.7597 26.3827 6.9999 26.2746 7.2131 26.1455C7.5223 25.9593 7.6874 25.6381 7.8916 25.3559C8.0927 25.0768 8.3389 24.8396 8.5461 24.5693C8.7292 24.3292 8.8583 24.05 9.0684 23.8278C9.2816 23.6087 9.5337 23.4916 9.786 23.3264C10.0832 23.1283 10.3293 22.8611 10.6026 22.6329C11.2 22.1286 11.9475 21.8494 12.584 21.3961C12.9413 21.1409 13.3225 20.9337 13.6858 20.6876C13.992 20.4774 14.2562 20.2162 14.5864 20.0481C14.8807 19.901 15.1989 19.8319 15.5021 19.7118C15.8384 19.5797 16.1416 19.3906 16.4538 19.2135C16.6909 19.4087 16.9251 19.5977 17.1623 19.7899C17.0512 19.946 16.9281 20.0931 16.793 20.2282C16.3698 20.6485 15.8294 21.0658 15.2679 21.267C14.7185 21.4621 14.1211 21.5822 13.5928 21.8374C13.0614 22.0896 12.563 22.3747 12.1367 22.7861C11.7824 23.1283 11.3651 23.5096 11.1429 23.9599C10.9208 24.4133 10.7917 24.9507 10.6776 25.44C10.5906 25.8033 10.5875 26.2085 10.6056 26.5839C10.6326 27.1483 10.9868 27.6706 11.3111 28.1089C11.6173 28.5172 11.9685 28.8895 12.3559 29.2228C12.9053 29.6941 13.4817 30.2105 13.8088 30.871C13.9349 31.1231 13.8899 31.4984 13.8659 31.7716C13.8269 32.1859 13.7399 32.5521 13.4967 32.9004C13.3856 33.0566 13.2715 33.2006 13.0943 33.2847C12.9683 33.3477 12.8242 33.3567 12.6891 33.3958C12.629 33.4168 12.4369 33.4678 12.4098 33.5249C12.4729 33.642 12.8272 33.5909 12.9293 33.5999C13.3646 33.639 13.7069 33.63 14.1361 33.5189C14.6164 33.3958 15.0788 33.2606 15.4421 32.9064C15.7813 32.5732 15.9195 32.1829 16.0785 31.7505C16.2497 31.2882 16.4208 30.9399 16.4358 30.4326C16.4538 29.8802 16.4028 29.3549 16.1836 28.8414C15.9974 28.4091 15.7453 27.9949 15.5201 27.5835C15.361 27.2924 15.1509 27.0282 15.1269 26.6919C15.0908 26.2476 15.0818 25.7522 15.1209 25.3079C15.1749 24.7074 15.433 24.1911 15.7693 23.7018C16.1175 23.1913 16.4088 22.6269 16.9131 22.2457C17.3005 21.9515 17.7928 21.6752 18.2461 21.5072C18.5073 21.4081 18.7805 21.342 19.0357 21.2309C19.7292 21.7443 20.4167 22.2697 21.1012 22.8011C20.4827 23.7738 20.0204 24.7915 19.7922 25.9383C19.543 27.2023 19.2999 28.4962 19.39 29.7931C19.423 30.2795 19.513 30.7569 19.6421 31.2282C19.42 31.7896 19.2218 32.36 19.0627 32.9365C18.8015 33.8851 18.8435 34.8218 18.8495 35.7975C18.8555 36.437 18.8675 37.0674 18.9396 37.7039C19.2398 40.2617 19.9333 42.8226 21.1882 45.0803C21.4014 45.4645 21.5485 45.8819 21.7917 46.2451C21.9718 46.5123 22.185 46.7434 22.3981 46.9806C22.6533 47.2659 22.9055 47.557 23.1576 47.8453C22.221 47.9053 21.2453 47.9474 20.3416 47.7552C19.6121 47.6021 18.8435 47.2929 18.174 46.9776C17.6697 46.7374 17.1744 46.4763 16.733 46.134C16.4568 45.9209 16.1596 45.7047 15.9764 45.4015C15.8264 45.1584 15.7453 44.8851 15.6492 44.6179C15.4991 44.1916 15.2619 43.5732 15.364 43.1108C15.406 42.9037 15.5471 42.7115 15.6492 42.5464C15.5622 42.5074 15.4931 42.5314 15.421 42.5824C15.2589 42.6995 15.0969 42.9938 15.0008 43.1618C14.6375 43.7863 14.4724 44.5788 14.6495 45.2904C14.7486 45.6777 14.9617 45.9899 15.214 46.2901C15.5622 46.7014 15.9285 47.0977 16.3247 47.4609C16.79 47.8903 17.2704 48.3736 17.8408 48.6619C18.2131 48.8479 18.6094 48.9711 18.9816 49.1602C19.537 49.4455 20.0534 49.8057 20.6208 50.0699C21.1372 50.313 21.5996 50.3911 22.164 50.4271C22.7524 50.4661 23.3288 50.6103 23.9142 50.6463C24.4426 50.6793 24.977 50.6073 25.4874 50.4692C25.6105 50.6283 25.7336 50.7844 25.8447 50.9495C26.2679 51.586 26.5442 52.3845 26.6762 53.1321C26.8233 53.9667 26.7843 54.8704 26.4391 55.6539C25.9887 56.6656 25.2441 57.6804 24.1634 58.0826C22.9626 58.53 21.0231 58.1817 20.5338 56.8458C20.2966 56.1913 20.6989 55.2876 21.3894 55.0956C21.9238 54.9484 22.4521 55.1286 22.9896 55.0986C23.2177 55.0835 23.0946 54.9424 23.0046 54.7983C22.7043 54.318 22.1069 53.9937 21.6086 53.7596C21.0561 53.5014 20.5518 53.5044 19.9694 53.6815C19.6871 53.7686 19.405 53.8586 19.1197 53.9367C18.8345 54.0147 18.5463 54.0808 18.3031 54.2609C18.006 54.4801 17.7748 54.8373 17.5706 55.1406C17.4415 55.3357 17.3395 55.5128 17.3185 55.75C17.2614 56.3564 17.3185 56.9899 17.4925 57.5753C17.7598 58.485 18.3572 59.0944 19.0267 59.7339C19.504 60.1903 19.9664 60.6376 20.5248 61.0008C21.0291 61.3251 21.5666 61.5833 22.1219 61.7994C22.7974 62.0636 23.4549 62.2678 24.1814 62.3368C24.8029 62.3968 25.4663 62.4268 26.0938 62.3818C26.4541 62.3577 26.7903 62.2828 27.1386 62.1987C27.6219 62.0816 28.1262 61.9525 28.5736 61.7333C29.2881 61.3761 29.9756 60.8778 30.5731 60.3493C30.9333 60.0281 31.2666 59.7249 31.5248 59.3136C31.7799 58.9053 32.0411 58.479 32.2573 58.0497C32.6235 57.3232 32.9118 56.4916 32.9088 55.675C32.9058 55.2396 32.8367 54.8073 32.7857 54.378C32.7406 54.0087 32.6986 53.6515 32.5995 53.2942C32.4644 52.8079 32.2033 52.3306 31.9781 51.8832C31.7769 51.4839 31.5638 51.0876 31.3206 50.7094C30.9303 50.1089 30.48 49.5324 29.9756 49.0251C29.5643 48.6138 29.138 48.2265 28.7208 47.8303C29.3392 46.7014 29.5012 45.3714 29.3722 44.1015C29.3092 43.4621 29.0179 42.9848 28.7268 42.4233C28.3875 41.7718 28.0393 41.1444 27.6639 40.5139C26.8263 39.1179 25.8296 37.872 24.7939 36.6232C24.4036 36.1487 23.9772 35.6864 23.6471 35.1671C23.6471 34.8728 23.6561 34.5786 23.6711 34.2874C23.7251 33.5519 23.8692 32.8344 24.1484 32.1499C24.6918 30.8259 25.4813 29.6911 26.4121 28.6073C26.6342 28.3461 26.8653 28.0939 27.0995 27.8508C28.2043 28.8444 29.2521 29.9433 29.8285 31.3002C29.9306 31.5495 30.0237 31.8016 30.1078 32.0568C30.1408 32.1859 30.1798 32.315 30.2278 32.441C30.4109 32.6122 30.6301 32.1559 30.6812 32.0568C30.8283 31.7205 30.9663 31.3783 31.0954 31.033C31.2726 30.5887 31.4527 30.1475 31.6299 29.7031C32.0561 28.6584 32.5335 27.6346 33.0019 26.6079C33.3411 25.8603 33.6894 25.1218 34.0316 24.3773C34.3048 24.6324 34.5659 24.8996 34.8001 25.1909C35.3435 25.8693 35.7308 26.6349 36.01 27.4574C36.2592 28.19 36.4303 28.9135 36.4814 29.6881C36.5384 30.5527 36.5174 31.4204 36.5114 32.288C36.5054 33.8851 36.5384 35.4853 36.7005 37.0765C36.7995 38.0462 36.9167 39.0068 36.9977 39.9766C37.0518 40.616 37.0968 41.2585 37.1929 41.8919C36.9287 42.4413 36.6824 42.9998 36.4634 43.5672C36.043 44.6599 35.8089 45.8338 35.5477 46.9716C35.4546 47.3739 35.3435 47.7732 35.2864 48.1815C35.2204 48.6619 35.3015 49.1392 35.3435 49.6165C35.3765 49.9678 35.3735 50.313 35.3885 50.6643C35.4035 50.9825 35.4816 51.2888 35.5597 51.595C35.7398 52.3155 36.1901 52.919 36.6494 53.4894C36.8926 53.7925 37.1599 54.1078 37.448 54.369C37.7273 54.6211 38.0575 54.8253 38.3577 55.0535C38.871 55.4408 39.4596 55.681 40.072 55.8731C40.5823 56.0322 41.0927 56.1913 41.6121 56.3144C42.1255 56.4375 42.6058 56.5696 43.1341 56.5786C42.909 56.5756 42.7439 56.5396 42.5367 56.4375C42.0504 56.1973 41.5881 55.8972 41.1377 55.5939C40.6364 55.2516 40.2101 54.7893 39.8048 54.336C39.4115 53.8976 39.0542 53.3452 38.823 52.8019C38.4688 51.9672 38.2526 51.0636 38.1205 50.172C38.0485 49.6826 38.0425 49.2533 38.0635 48.758C38.0905 48.1514 38.0815 47.53 38.1745 46.9266C38.2136 46.6714 38.2646 46.4162 38.3187 46.164C38.4147 46.4463 38.5168 46.7224 38.6309 46.9956C39.3635 48.7099 40.5343 50.259 41.8102 51.607C42.9691 52.8289 44.3921 53.7985 45.9202 54.501C47.4363 55.2006 49.0995 55.4798 50.7567 55.4708C51.5223 55.4648 52.2698 55.3597 53.0174 55.1976C53.6568 55.0595 54.2993 54.9094 54.9057 54.6542C56.6529 53.9156 58.2832 52.5587 58.9376 50.7364C59.3129 49.6946 59.4571 48.6108 59.4541 47.506C59.4481 46.5183 59.418 45.5246 59.2229 44.5488C59.0277 43.5882 58.7456 42.6425 58.2651 41.7778C57.947 41.2044 57.5266 40.6791 57.1244 40.1597C56.8181 39.7634 56.4969 39.3942 56.1306 39.0489C54.5634 37.5628 52.3389 36.2598 50.0933 36.7372C49.3878 36.8843 48.6852 37.2776 48.1598 37.7609C47.9347 37.9711 47.7245 38.1932 47.5023 38.4094C47.2682 38.6406 47.025 38.8537 46.8839 39.157C46.5987 39.7694 46.4997 40.4148 46.6497 41.0753C46.7157 41.3606 46.8448 41.8859 47.1811 41.994C47.4753 42.0871 47.6344 41.6098 47.7125 41.4086C47.8326 41.0933 48.0218 40.8262 48.2379 40.565C48.6282 40.0937 49.0455 39.6012 49.6789 39.5082C49.9792 39.4602 50.3604 39.4962 50.6697 39.5112C51.144 39.5322 51.5313 39.6433 51.9456 39.8685C52.8583 40.3608 53.4857 41.1894 53.906 42.1231C54.1462 42.6605 54.3744 43.2219 54.4705 43.8043C54.5484 44.2787 54.5454 44.777 54.5334 45.2573C54.4945 46.5484 54.0291 47.7432 53.2275 48.749C52.8372 49.2323 52.3658 49.5865 51.8255 49.8837C51.2731 50.19 50.6967 50.4601 50.0482 50.4692C48.7693 50.4902 47.4543 50.133 46.3075 49.5895C45.596 49.2533 44.8875 48.8329 44.245 48.3706C43.5215 47.8543 42.909 47.1848 42.3236 46.5243C41.1918 45.2393 40.3121 43.7804 39.6216 42.2192C39.6937 42.0661 39.7627 41.9099 39.8348 41.7538C40.132 41.1204 40.3751 40.4629 40.6514 39.8204C41.2698 38.3704 41.9903 36.9774 42.5337 35.4973C42.7649 34.8758 42.9811 34.2544 43.2362 33.642C43.4674 33.0865 43.6836 32.5431 43.8126 31.9547C44.0468 30.883 43.9718 29.8052 43.9808 28.7154C43.9868 28.205 43.9598 27.7367 43.8607 27.2353C43.7256 26.5689 43.5485 25.8693 43.3263 25.2268C43.1071 24.6023 42.825 23.9509 42.4196 23.4255C42.0174 22.9032 41.5881 22.3687 41.1167 21.9094C40.3361 21.1469 39.4535 20.5284 38.5949 19.8619C37.9855 19.3906 37.43 18.8291 36.9467 18.2197C37.3729 17.2801 37.7903 16.3344 38.2196 15.3947C38.6039 15.3797 38.9911 15.4157 39.3725 15.5208C39.8738 15.6589 40.3001 16.0071 40.7024 16.3224C41.1047 16.6437 41.459 16.9829 41.7561 17.4031C42.3686 18.2738 42.861 19.2405 43.3503 20.1862C43.6206 20.7086 43.8426 21.2429 44.0889 21.7803C44.3261 22.3058 44.6022 22.8191 44.8514 23.3415C45.4008 24.5033 45.9112 25.6051 46.7338 26.6109C47.4423 27.4814 48.2649 28.22 49.1866 28.8564C50.0452 29.4479 50.8949 30.1234 51.9185 30.3906C52.537 30.5557 53.1704 30.7839 53.8129 30.8079C54.3564 30.8289 54.8307 30.7539 55.353 30.6218C56.0255 30.4506 56.9712 30.3305 57.5266 30.8349C57.8809 31.1531 58.004 31.5615 57.962 32.0268C57.9229 32.444 57.7428 32.9485 57.2895 33.0686C56.9682 33.1526 56.5299 33.0536 56.2117 32.9935C55.9594 32.9455 55.9055 32.8854 55.7614 32.6963C55.386 32.2009 54.5454 32.8824 54.3083 33.2276C54.0321 33.633 54.3113 33.9692 54.6115 34.2784C55.191 34.8788 55.8845 35.2721 56.665 35.5633C57.2475 35.7765 57.7968 35.8005 58.4123 35.7555C58.8686 35.7195 59.352 35.7045 59.7873 35.5483C60.5348 35.2751 61.2553 34.8308 61.7867 34.2394C62.3302 33.636 62.7234 32.9815 63.0147 32.228C63.2758 31.5495 63.3899 30.8319 63.6421 30.1475C63.8792 29.5079 64.3026 28.4091 63.6601 27.8508" /><path d="M12.4338 35.4312C12.4068 35.3622 12.1877 35.1281 12.1037 35.2571C12.0616 35.3201 12.1547 35.4102 12.1967 35.4492C12.2928 35.5423 12.3888 35.6264 12.4819 35.7135C12.4849 35.6234 12.4729 35.5303 12.4338 35.4312" /></g></svg>
