<?xml version="1.0" encoding="UTF-8"?>
<svg xmlns="http://www.w3.org/2000/svg" width="64" height="64" viewBox="0 0 64 64"><title>TCU-Silver-Twilight-Lodge</title><g fill="#000000" id="TCU-Silver-Twilight-Lodge"><path d="M57.8819 6.7331C57.5959 7.1266 57.3623 7.5876 57.0181 7.9381C56.6554 8.3008 56.1696 8.5191 55.767 8.8326C55.4289 9.0939 55.0999 9.3367 54.7465 9.5734C53.9626 10.096 53.3755 10.6246 52.7638 11.3286C52.3887 11.7589 51.9922 12.1463 51.5311 12.4813C51.0854 12.8041 50.7688 13.1668 50.4123 13.5817C49.7329 14.3717 48.8353 14.9558 48.1068 15.7028C47.8517 15.9641 47.6057 16.1853 47.3106 16.3975C46.788 16.7724 46.3946 17.2275 45.9766 17.71C45.62 18.1219 45.079 18.7674 44.4765 18.7551C44.8146 18.7428 45.1343 18.7428 45.4601 18.8228C46.2194 19.0165 46.9233 19.29 47.6949 19.4376C48.1898 19.5329 48.6139 19.8463 49.1028 19.954C49.6991 20.0862 50.4491 19.9755 51.0547 19.9755L51.4512 19.9755C51.3221 20.2429 51.1807 20.5011 50.9994 20.7501C50.7042 21.162 50.4184 21.5678 50.1448 21.9981C49.49 23.034 48.6693 23.9439 47.9899 24.9644C47.2738 26.0496 46.5852 27.1562 45.8813 28.2505C45.1405 29.4001 44.3535 30.5128 43.5113 31.5857C43.124 32.0744 42.5953 32.4678 42.1281 32.8767C41.5348 33.3962 40.9292 33.8819 40.3759 34.4413C39.2877 35.5325 38.3502 36.7406 37.1576 37.7273C36.4505 38.3083 35.8788 39.0153 35.3071 39.7254C35.1656 39.9005 34.9812 40.2541 34.7691 40.3463C34.7138 40.1834 34.7907 40.0327 34.8305 39.8759C34.9197 39.5286 34.9504 39.2212 34.9597 38.8677C34.9658 38.3759 35.058 37.8903 35.0673 37.3953C35.0857 36.6115 35.0949 35.8061 35.0396 35.0253C34.9965 34.4013 34.975 33.7866 34.9658 33.1625C34.9535 32.2742 34.8213 31.3674 34.7353 30.4821C34.5263 28.3427 34.2588 26.2247 34.2434 24.07C34.2403 23.1478 34.2096 22.2502 34.1697 21.3311C34.0898 19.6189 34.1513 17.9007 34.1421 16.1884C34.139 15.3923 34.1482 14.5992 34.2158 13.8092C34.2865 13.8615 34.3602 13.9138 34.4433 13.9568C35.0949 14.301 35.7005 14.6946 36.3153 15.1033C37.1084 15.629 37.6709 16.4774 38.5224 16.9323C38.882 17.126 38.8359 16.9046 38.8359 16.6096C38.8359 16.2591 38.7529 15.9641 38.6207 15.6351C38.4179 15.1372 38.1934 14.6792 38.0274 14.1659C37.9015 13.7877 37.7078 13.4373 37.5418 13.0776C37.0131 11.9218 36.4321 10.7907 35.8727 9.6533C35.264 8.4207 34.4187 7.3724 33.9392 6.0691C33.3797 4.5476 32.6266 3.1059 32.021 1.6028C31.8027 1.0556 31.5723 0.533 31.3294 0.0104C31.2956 0.2011 31.2495 0.3947 31.188 0.5883C30.9759 1.2369 30.7945 1.8948 30.5056 2.5157C30.3027 2.9399 30.0476 3.3364 29.8508 3.7637C29.6172 4.2709 29.399 4.7874 29.1531 5.2853C28.7381 6.1275 28.3662 6.9729 28.0034 7.8367C27.8375 8.2301 27.6407 8.6081 27.487 9.0078C27.2965 9.4935 27.195 10.0006 27.0505 10.5017C26.8999 11.0274 26.651 11.5223 26.4726 12.0387C26.3005 12.5336 26.1314 13.0284 25.9624 13.5234C25.7841 14.0337 25.5812 14.5347 25.4705 15.0665C25.3322 15.7089 25.3015 16.3698 25.1754 17.0153C25.0771 17.5348 24.8926 18.085 24.7052 18.5799C24.6744 18.6598 24.6467 18.7674 24.5976 18.8474C24.7605 18.7367 25.0371 18.6291 25.1416 18.5737C25.4766 18.3863 25.8333 18.2756 26.159 18.0727C26.7954 17.6824 27.3179 17.1137 28.0065 16.8124C28.2524 16.7017 28.3908 16.6004 28.5874 16.4067C28.8272 16.1669 29.107 16.0594 29.3713 15.8596C29.8631 15.4906 30.2197 14.9742 30.6347 14.5224C30.5609 15.0203 30.5363 15.5306 30.4748 16.0256C30.3489 17.0245 30.2628 17.9651 30.2689 18.9734C30.272 19.7604 30.2812 20.5472 30.2751 21.3342C30.2658 22.281 30.1275 23.2185 30.0875 24.1622C30.0537 25.0044 30.0814 25.8375 29.9707 26.6736C29.8662 27.5066 29.691 28.315 29.6265 29.1542C29.5527 30.144 29.5619 31.1337 29.5035 32.1236C29.359 34.6012 29.2791 37.0541 28.8426 39.5071C28.695 40.3371 28.443 41.1731 28.4215 42.0185C28.4154 42.2952 28.4799 42.6271 28.4154 42.8915C28.3262 42.6886 28.0311 42.6579 27.8559 42.5257C27.5147 42.2737 27.3057 41.8986 26.9644 41.6558C26.7123 41.4714 26.6786 41.4591 26.5034 41.1086C26.365 40.8351 26.2421 40.5553 26.1037 40.2818C25.8148 39.7223 25.4275 39.2458 25.0894 38.7171C24.8005 38.2591 24.5514 37.7765 24.2594 37.3184C23.6538 36.3656 23.0667 35.3973 22.4212 34.472C21.8248 33.6144 21.4929 32.64 21.0472 31.6993C20.7398 31.0478 20.3986 30.4115 20.0727 29.769C19.6855 28.9944 19.3719 28.1644 18.9231 27.4297C18.2345 26.3016 17.4015 25.2626 16.7006 24.1407C16.2334 23.3999 15.634 22.7359 15.2006 21.9797C14.5643 20.87 14.0971 19.6927 13.6421 18.5093C14.2354 18.4939 14.8317 18.4478 15.4312 18.4447C15.9076 18.4447 16.3841 18.4447 16.8605 18.4447C17.0388 18.4478 17.2479 18.4816 17.4169 18.4294C17.4445 18.2664 17.0142 17.9314 16.9066 17.8392C16.7437 17.6977 16.5562 17.5901 16.4025 17.4395C16.1904 17.2305 16.0245 16.9754 15.8215 16.7571C14.7795 15.6228 13.6175 14.5685 12.4586 13.5572C11.7024 12.8994 10.9002 12.3706 10.0795 11.7989C9.0959 11.1134 8.1859 10.3265 7.2054 9.638C6.5445 9.1708 5.8344 8.7373 5.2688 8.1563C5.0874 7.9718 4.8661 7.809 4.6725 7.6368C4.4696 6.9022 4.3681 6.9052 4.2728 6.939C4.2267 7.0928 4.2913 7.2496 4.3159 7.4032C4.3804 7.7998 4.3681 8.1963 4.3681 8.5989C4.3651 9.3275 4.3743 10.0375 4.445 10.763C4.5372 11.7374 4.5003 12.7303 4.6663 13.6985C4.8261 14.6577 5.0352 15.5982 5.1827 16.5604C5.2565 17.043 5.3211 17.5225 5.3887 18.0051C5.4624 18.5247 5.4318 19.0626 5.5239 19.579C5.6377 20.2153 5.8682 20.8547 6.0004 21.494C6.1264 22.1211 6.3231 22.7113 6.523 23.3199C6.9933 24.7432 7.5435 26.1448 7.9677 27.5773C8.1613 28.2351 8.272 28.9144 8.4626 29.563C8.7146 29.5569 8.8007 28.856 8.8468 28.69C9.0313 28.0537 9.1881 27.4512 9.2864 26.7934C9.3386 26.4461 9.4739 26.1294 9.5477 25.7883C9.6491 25.3211 9.6368 24.8568 9.686 24.3865C9.7598 23.7226 9.8981 23.0617 9.9749 22.3977C10.0272 21.9643 10.0979 21.5494 10.1778 21.1343C10.3715 21.4325 10.5713 21.7245 10.7773 22.0258C11.5304 23.1293 12.3756 24.1653 13.1134 25.2749C13.3593 25.6438 13.4639 26.1048 13.6482 26.5076C13.805 26.8487 14.0356 27.1224 14.2261 27.442C14.4567 27.8324 14.6381 28.2597 14.8225 28.6685C15.3851 29.9319 16.092 31.0016 16.9435 32.0959C17.4906 32.7968 17.9517 33.5376 18.3913 34.3091C18.9508 35.2867 19.6117 36.1873 20.1588 37.1679C20.6476 38.0439 21.1086 38.9261 21.5052 39.8452C22.2337 41.5359 23.1866 43.0974 24.1303 44.6775C24.7267 45.6764 25.2 46.7707 25.6888 47.8251C26.1406 48.7995 26.5864 49.7925 26.9983 50.7853C27.2073 51.2894 27.4931 51.6491 27.8067 52.0856C27.945 52.2792 28.0249 52.3591 28.0341 52.6112C28.0434 52.8141 28.0618 53.103 28.0188 53.3028C27.9942 53.4073 27.7329 53.8192 27.736 53.8131C27.5823 54.0959 27.4255 54.3817 27.235 54.6431C27.0229 54.932 26.7308 55.1287 26.5218 55.4239C26.3558 55.6636 26.2175 55.931 26.0608 56.1769C24.9818 57.8922 23.5125 59.3399 22.1692 60.8431C21.5298 61.5594 20.8351 62.2141 20.1773 62.9088C19.9159 63.1854 19.4795 63.5021 19.2427 63.8463C19.3657 63.7233 19.5625 63.6219 19.6701 63.5451C19.8391 63.4221 19.9805 63.293 20.168 63.2162C20.789 62.9579 21.4868 62.8258 22.1477 62.709C23.1128 62.5399 24.1519 62.38 25.0863 62.0696C25.4797 61.9374 25.8732 61.67 26.2421 61.4856C26.7554 61.2304 27.2873 61.132 27.8467 61.046C28.6766 60.9231 29.4635 60.7478 30.3089 60.757C30.8776 60.7632 31.4339 60.8339 31.9964 60.8985C32.8449 60.9938 33.6994 60.8769 34.5447 60.9692C35.6236 61.0859 36.6289 61.6853 37.6125 62.1004C38.3133 62.3985 39.0203 62.6567 39.7642 62.8197C40.3268 62.9456 40.7601 63.1577 41.2827 63.3822C41.418 63.4406 41.6178 63.5513 41.7653 63.5113C41.6393 63.2408 41.1812 63.0348 40.9846 62.8135C40.5726 62.3554 40.3022 61.7468 39.9732 61.2335C39.5337 60.5449 39.1033 59.844 38.6422 59.1709C38.2488 58.6022 37.7754 58.1258 37.3204 57.6124C36.7886 57.013 36.4475 56.2968 36.0202 55.6267C35.6574 55.0611 35.1687 54.5816 34.7415 54.0621C34.3695 53.6132 34.2557 53.226 34.0345 52.688C33.9392 52.4575 33.8316 52.1593 33.6317 51.9841C33.5641 51.9288 33.3828 51.8642 33.349 51.772C33.3029 51.6491 33.3889 51.6583 33.4105 51.5661C33.4812 51.2402 33.6532 51.0005 33.8316 50.6869C34.2526 49.9399 34.7169 49.2145 35.1779 48.4922C35.4208 48.1079 35.7251 47.7729 35.9895 47.4039C36.3091 46.9552 36.5889 46.4788 36.8901 46.0177C37.6678 44.8311 38.5162 43.6845 39.3492 42.5349C39.9363 41.7264 40.4988 40.9027 41.0461 40.0666C41.6701 39.1168 42.417 38.2622 43.1424 37.3891C44.123 36.2088 44.9683 34.9362 45.8752 33.7005C46.4992 32.8552 47.2431 32.1082 47.864 31.2598C48.3835 30.5466 48.8322 29.7905 49.3363 29.0712C50.3754 27.5957 51.5619 26.2217 52.6131 24.7555C53.2064 23.9286 53.8611 23.1447 54.5374 22.3793C54.6266 22.4315 54.7127 22.4838 54.7864 22.5576C54.9493 22.7451 55.1122 22.9326 55.2782 23.1139C55.5456 23.3814 55.8377 23.618 56.1081 23.8855C56.4555 24.2267 56.7506 24.5649 57.0211 24.9767C57.3346 25.4532 57.7035 25.8282 58.0539 26.2708C58.1492 26.3877 58.2199 26.5937 58.4229 26.5106C58.5857 26.4461 58.5212 26.2616 58.5182 26.1018C58.512 25.5177 58.4905 24.9245 58.512 24.3404C58.5274 24.0392 58.6103 23.7595 58.6257 23.4613C58.6902 22.2871 58.6257 21.0851 58.6195 19.9078C58.6164 19.3361 58.6533 18.8197 58.7517 18.2603C58.8716 17.5655 58.8224 16.8524 58.9208 16.1515C59.0007 15.5829 59.1083 15.0326 59.1299 14.4578C59.1637 13.6002 59.3265 12.7764 59.4126 11.928C59.6124 10.0037 59.7477 8.0794 59.7416 6.1459C59.7416 5.6757 59.6985 5.1685 59.7293 4.6767C59.4741 4.9471 59.262 5.2546 59.0069 5.525C58.6195 5.9247 58.2107 6.2781 57.8819 6.7331" /><path d="M24.5991 18.8474C24.553 18.8781 24.5099 18.9119 24.4915 18.9427C24.5407 18.9304 24.5714 18.8904 24.5991 18.8474" /><path d="M19.1389 64C19.1635 63.9478 19.2065 63.8986 19.2434 63.8463C19.1942 63.8955 19.1543 63.9447 19.1389 64" /></g></svg>
